<svg width="82" height="82" viewBox="0 0 82 82" fill="none" xmlns="http://www.w3.org/2000/svg">
<g clip-path="url(#clip0_791_6886)">
<path d="M82 40.9975C82 63.6425 63.6425 82 41.0025 82C18.3624 82 0 63.6425 0 40.9975C0 18.3525 18.3575 0 40.9975 0C63.6376 0 81.995 18.3575 81.995 40.9975H82Z" fill="url(#paint0_radial_791_6886)"/>
<path d="M55.2314 10.5375C62.7532 7.44235 70.0267 12.4751 74.0857 16.8571C73.0523 15.4411 71.9344 14.0948 70.7321 12.8279C67.0756 9.91651 63.5879 8.75396 61.6056 8.54529C53.5223 7.6858 46.5818 13.0067 44.3213 21.706C41.8769 31.1059 44.4753 36.7994 46.2688 40.5007C48.9864 46.1148 55.3109 52.8715 58.724 60.1449C62.6688 68.566 59.6879 75.2284 57.4075 77.2454C56.1207 78.3832 54.2775 79.4712 52.3896 80.3704C53.7906 79.963 55.1618 79.501 56.4933 78.9545C58.6644 77.5982 59.976 76.1425 60.6765 74.8061C61.7646 72.7244 62.1372 70.3645 62.0776 67.9003C61.8391 58.4309 54.665 51.6543 48.3952 41.0621C41.9067 30.0973 44.7982 14.84 55.2364 10.5425L55.2314 10.5375ZM12.967 11.1387C12.1125 12.0628 11.3076 13.1309 10.7561 14.4425C9.36506 17.7514 11.1337 22.7195 11.4964 27.3598C12.0876 34.8767 10.5425 39.3531 6.31955 47.8039C3.9696 52.4989 4.15342 57.477 5.31101 60.7908C5.46503 61.1883 5.63891 61.5857 5.81777 61.9782C7.10453 64.1344 8.57511 66.1564 10.2246 68.0294C3.71125 60.294 5.36069 52.8119 8.64964 46.4625C13.5532 36.9882 14.1743 29.9632 11.8044 19.6244C10.6816 14.7307 13.5433 11.1039 15.9032 8.63472C14.8847 9.42466 13.911 10.2593 12.972 11.1437L12.967 11.1387Z" fill="url(#paint1_radial_791_6886)"/>
<path d="M57.2536 76.4654C55.8824 77.1014 55.2117 77.5435 55.4949 77.8019C55.6737 77.9559 57.2685 77.1958 58.8286 76.4108C59.8123 75.9189 59.7725 76.0729 60.9102 76.1475C61.7747 76.2071 62.1523 76.0729 62.4206 75.8146C62.8876 75.3675 62.2069 75.3824 61.1288 75.2085C59.9116 75.0048 59.6384 75.3675 57.2536 76.4654ZM58.7242 71.8848C57.3232 72.7244 56.6972 73.3752 57.1294 73.877C57.3977 74.1801 59.0223 73.1665 60.5823 72.1034C61.571 71.4376 61.5859 71.7009 62.972 72.0686C64.0302 72.3567 64.4327 72.1878 64.6562 71.7904C65.0438 71.0998 64.2389 70.9905 62.8826 70.4589C61.3474 69.8528 61.1586 70.434 58.7242 71.8897V71.8848ZM11.8642 18.735C13.1013 18.7698 14.2887 18.735 14.4427 18.3177C14.6911 17.6619 14.239 17.4483 13.2504 17.4781C11.3674 17.5327 11.2035 17.1104 9.89187 18.591C8.58026 20.0715 7.7307 20.8018 8.11325 21.2788C8.33682 21.557 8.74918 21.4129 9.80244 20.2951C11.0445 18.9735 11.0544 18.7102 11.8742 18.735H11.8642ZM58.1827 65.9577C57.1096 66.9364 56.722 67.6568 57.2536 68.2133C57.5915 68.561 58.8584 67.4134 60.1451 66.1217C61.0046 65.2622 61.1139 65.5851 62.8925 65.9627C64.3681 66.2856 64.8401 66.0471 64.9742 65.4957C65.2077 64.5368 64.075 64.4772 62.1721 63.9555C60.2196 63.419 60.2097 64.1145 58.1827 65.9627V65.9577ZM61.253 60.3238C59.1316 59.9313 59.1962 60.6914 57.2636 62.8973C56.2401 64.0648 55.9122 64.8846 56.5382 65.441C56.9307 65.7838 58.1429 64.4126 59.3552 62.8824C60.165 61.8689 60.314 62.2018 62.2367 62.4353C63.8315 62.639 64.3085 62.3309 64.388 61.7149C64.5221 60.6566 63.3198 60.7014 61.253 60.3238ZM62.8975 67.3786C61.1388 66.7526 61.0245 67.3985 58.7391 69.0082C57.4822 69.8925 56.9704 70.5682 57.4424 71.1097C57.7405 71.4426 59.2012 70.3943 60.6618 69.2467C61.6107 68.5014 61.6654 68.7945 63.2552 69.2069C64.5221 69.5447 64.9643 69.351 65.163 68.884C65.5008 68.0642 64.532 67.9549 62.8975 67.3786ZM46.5422 31.6474C48.2711 32.9292 48.8673 32.795 49.0909 31.9852C49.4734 30.5792 48.1271 29.9085 45.946 28.1249C43.765 26.3463 43.6607 27.4095 41.112 29.2428C39.7656 30.2116 39.2241 31.1307 39.7358 32.2684C40.0587 32.9888 41.6734 31.8461 43.3228 30.4848C44.4208 29.5806 44.5102 30.1321 46.5472 31.6474H46.5422ZM43.5911 25.0695C44.7735 24.2795 44.8083 24.841 46.6813 26.55C48.2711 28.0007 48.8773 27.9262 49.1803 27.1412C49.707 25.7799 48.4301 24.9751 46.4379 22.9878C44.4456 20.9956 44.237 22.0439 41.5144 23.6138C40.0786 24.4435 39.4476 25.298 39.8401 26.4854C40.0885 27.2356 41.8075 26.2569 43.5911 25.0695ZM62.8876 7.50693C61.8542 6.46361 61.1338 5.95686 60.6718 6.091C60.3687 6.18043 61.6107 7.44235 63.0018 8.77382C63.9309 9.6681 63.6477 9.64326 63.5533 10.8008C63.4688 11.8094 63.7818 12.2615 64.3482 12.5496C65.3269 13.0514 65.1829 12.1919 65.3518 10.9499C65.5157 9.75256 64.8798 9.50911 62.8925 7.50693H62.8876ZM44.858 20.151C46.1795 19.5498 46.1249 20.0616 47.7545 21.8054C49.1356 23.2859 49.7616 23.2809 50.1889 22.5953C50.9341 21.403 49.7666 20.5435 48.0674 18.5314C46.3683 16.5192 45.9907 17.4533 42.9949 18.6208C41.415 19.2368 40.645 19.9572 40.8586 21.0751C40.9927 21.7855 42.8856 21.0602 44.8679 20.151H44.858ZM59.4645 56.8013C57.1294 56.4933 57.3431 57.2683 55.6986 59.6183C54.8242 60.8603 54.6304 61.7149 55.3955 62.2564C55.8774 62.5893 56.9158 61.1286 57.9194 59.504C58.5901 58.4259 58.8136 58.7638 60.9102 58.9178C62.6491 59.0519 63.0962 58.7141 63.0664 58.0831C63.0118 56.9852 61.7399 57.0895 59.4645 56.7964V56.8013ZM53.2244 10.0606C54.6205 10.3438 54.3423 10.5922 54.9583 12.2814C55.4949 13.7569 56.0563 14.055 56.7469 13.8762C57.9492 13.5731 57.2934 12.5397 56.6972 10.6667C56.1209 8.84835 55.3906 9.16134 52.35 8.43599C50.7652 8.0584 49.8063 8.08324 49.4635 8.74401C49.2449 9.16631 51.1428 9.63829 53.2244 10.0556V10.0606ZM59.9812 8.35153C61.0593 9.1216 60.7761 9.17625 60.8754 10.5723C60.9649 11.7845 61.3524 12.2217 61.9684 12.3907C63.0267 12.6888 62.7385 11.72 62.6938 10.2096C62.6541 8.74898 61.9784 8.65459 59.6533 6.90081C58.441 5.98667 57.6461 5.60412 57.204 5.90718C56.9208 6.09597 58.3715 7.20884 59.9812 8.35649V8.35153ZM56.5978 8.64962C57.8647 9.23586 57.5716 9.36504 57.9045 10.8754C58.1926 12.1919 58.6745 12.5745 59.3552 12.6142C60.5277 12.6838 60.0607 11.6902 59.7725 10.0357C59.4943 8.43599 58.764 8.4956 56.0166 7.12438C54.5857 6.40896 53.6765 6.18043 53.2592 6.61763C52.9909 6.89585 54.7099 7.77025 56.6028 8.64465L56.5978 8.64962ZM65.3419 8.06337C64.85 7.69572 64.3731 7.30821 63.8613 6.9654C63.7769 6.9505 63.6924 6.92069 63.6229 6.94056C63.3546 7.01011 64.5469 8.29688 65.8685 9.66313C66.7578 10.5773 66.4994 10.5425 66.4696 11.6603C66.4498 12.6391 66.7528 13.0912 67.2794 13.3992C68.1886 13.9358 68.0147 13.0961 68.1042 11.8988C68.1886 10.7462 67.6024 10.4729 65.6996 8.42605C65.5704 8.28694 65.4611 8.17764 65.3419 8.0584V8.06337ZM49.7517 12.1721C51.2024 12.2516 50.9689 12.5745 51.883 14.363C52.6779 15.923 53.294 16.1615 53.9597 15.8436C55.1173 15.2971 54.2777 14.2537 53.3486 12.2615C52.4494 10.3289 51.7737 10.8008 48.5841 10.5028C46.9248 10.3487 45.9609 10.5425 45.7274 11.3424C45.5784 11.8541 47.5756 12.0578 49.7417 12.1721H49.7517ZM46.6962 15.7939C48.132 15.4262 47.983 15.8833 49.3095 17.6967C50.4671 19.2815 51.1279 19.371 51.6992 18.7897C52.6928 17.7812 51.6197 16.8173 50.2286 14.7605C48.8822 12.7682 48.3357 13.5383 45.1561 14.1892C43.5017 14.532 42.6074 15.0636 42.5776 16.0721C42.5577 16.718 44.5549 16.3304 46.6962 15.7839V15.7939ZM56.2898 56.0213C56.881 54.8836 57.1344 55.2214 59.2658 55.296C61.0344 55.3655 61.4567 54.9979 61.3772 54.352C61.2332 53.2242 59.9563 53.3832 57.6312 53.1696C55.2415 52.946 55.5247 53.736 54.0492 56.225C53.2691 57.5416 53.14 58.4309 53.9597 58.9575C54.4714 59.2854 55.4055 57.7353 56.2898 56.0213ZM56.9506 51.9871C58.754 52.0219 59.1614 51.6344 59.0372 50.9637C58.8087 49.8011 57.5219 49.9899 55.1322 49.816C52.6829 49.6322 53.0257 50.447 51.7042 53.0553C51.0037 54.4365 50.9391 55.3605 51.8085 55.8872C52.355 56.2151 53.1946 54.5905 53.9697 52.8019C54.4913 51.6096 54.7745 51.9573 56.9506 51.9871ZM54.4764 48.3405C56.4289 48.4349 56.8761 48.0424 56.7419 47.3469C56.5134 46.1396 55.1173 46.3035 52.5935 46.075C50.0696 45.8415 50.3975 46.6662 48.9816 49.2497C48.2364 50.611 48.142 51.545 49.0164 52.1213C49.5728 52.4889 50.477 50.8693 51.3216 49.0708C51.888 47.8785 52.1811 48.2362 54.4814 48.3405H54.4764ZM52.0221 44.6491C53.9995 44.828 54.4615 44.4454 54.3423 43.725C54.1386 42.483 52.7177 42.5923 50.164 42.2495C47.6104 41.9067 47.9283 42.7612 46.4279 45.3397C45.643 46.696 45.5237 47.6499 46.3932 48.2759C46.9446 48.6734 47.8985 47.0587 48.8027 45.2602C49.4039 44.0629 49.692 44.4454 52.0221 44.6491ZM49.4933 40.8634C51.5104 41.39 52.0321 41.0621 51.9874 40.2771C51.9128 38.9109 50.4373 38.7916 47.8389 37.9868C45.2455 37.1819 45.479 38.1507 43.6557 40.6448C42.6968 41.9613 42.4733 42.955 43.303 43.7747C43.8296 44.2964 44.9872 42.7314 46.1149 40.9677C46.8651 39.7952 47.1185 40.2473 49.4983 40.8634H49.4933ZM58.3665 74.3689C56.9555 75.0843 56.2799 75.6208 56.5929 76.0084C56.7866 76.2369 58.4261 75.3724 60.0209 74.4732C61.0295 73.9018 60.9947 74.1105 62.202 74.349C63.1161 74.5328 63.5086 74.3887 63.7769 74.0608C64.2389 73.4994 63.5235 73.4448 62.3808 73.0771C61.0841 72.6548 60.8158 73.1218 58.3665 74.3689ZM5.11247 57.9341C6.1061 59.5835 7.20904 61.3124 7.44752 61.1932C7.83503 60.9895 7.41274 60.0704 6.44891 58.6346C4.87896 56.2995 4.80444 55.7431 3.75118 55.609C3.24939 55.5394 2.89168 55.4549 2.69296 55.5046C2.842 55.8922 2.96621 56.2946 3.12022 56.6821C3.23946 56.7467 3.37857 56.8013 3.54252 56.856C4.47157 57.159 4.51131 56.9504 5.11247 57.939V57.9341ZM4.81437 60.2592C5.67884 61.8788 6.66751 63.414 7.7307 64.8945C7.61643 64.5318 7.23388 63.8711 6.61286 62.9271C5.60432 61.3919 5.22177 60.7014 4.81437 60.2592ZM4.88393 49.5975C3.41831 49.7664 2.61347 49.5825 2.68302 50.6606C2.7178 51.2717 3.02086 51.6443 4.10889 51.6593C5.49502 51.6891 5.62419 51.3612 6.18559 52.5535C7.04012 54.3769 7.92446 56.071 8.25733 55.7928C8.8088 55.3307 8.58523 54.3719 7.82013 52.9112C6.4042 50.2334 6.49859 49.4136 4.88393 49.5975ZM3.51768 54.2576C4.55106 54.4414 4.62558 54.1831 5.17705 55.2562C6.08126 57.01 7.07987 58.8085 7.38293 58.6445C7.87975 58.3564 7.54688 57.3727 6.64764 55.8474C5.15718 53.3286 5.15718 52.6529 3.92507 52.7075C2.90659 52.7473 2.37499 52.5684 2.48429 53.3633C2.54888 53.8204 2.77245 54.1284 3.51768 54.2576ZM8.19274 42.9053C6.36942 43.1984 5.35094 43.0692 5.25157 44.2566C5.19692 44.9423 5.5447 45.3099 6.95566 45.1658C8.62001 45.0019 8.8088 44.6442 9.29071 45.7918C10.0111 47.5207 10.7613 49.0758 11.1439 48.7032C11.745 48.1169 11.6208 47.2077 10.9998 45.9011C9.82231 43.422 10.0161 42.6122 8.19274 42.9053ZM6.29986 46.2638C4.56596 46.4426 3.57233 46.2539 3.54252 47.4462C3.52264 48.1368 3.88035 48.5293 5.2317 48.4746C6.82152 48.415 6.98547 48.0623 7.5121 49.2546C8.29708 51.0482 9.10192 52.6678 9.4497 52.3151C9.9962 51.7586 9.82728 50.8345 9.16154 49.4732C7.88968 46.8948 8.03376 46.0849 6.29986 46.2688V46.2638ZM71.5074 13.6774C70.1163 12.1224 68.6358 10.6468 67.0261 9.32032C67.344 9.71281 67.7067 10.15 68.0793 10.6021C68.8842 11.561 68.6755 11.4964 68.7898 12.5397C68.8891 13.4539 69.1823 13.9109 69.6344 14.2637C70.4144 14.8748 70.1759 14.0649 70.1063 12.957C70.0815 12.5894 70.002 12.3112 69.843 12.0181C69.8679 12.0479 69.8877 12.0777 69.9076 12.1025C70.6578 13.0912 70.4839 13.0067 70.6827 14.0053C70.8565 14.8748 71.1397 15.3418 71.5471 15.7194C72.2427 16.3752 71.9644 15.5902 71.7955 14.5369C71.7409 14.209 71.6515 13.9457 71.5123 13.6725L71.5074 13.6774ZM73.0475 15.6945C72.9978 15.5355 72.9482 15.3964 72.8935 15.2573C72.5706 14.8599 72.2278 14.4823 71.8899 14.0948C71.9893 14.3283 72.034 14.5369 72.193 15.0238C72.4613 15.8436 72.7345 16.3106 73.0773 16.7279C73.6685 17.4433 73.3456 16.6782 73.0475 15.6995V15.6945ZM55.8327 78.2639C54.536 78.8601 53.8753 79.2625 53.9746 79.4911C54.0442 79.6302 55.5794 78.9197 57.1692 78.1497C58.128 77.6876 58.1678 77.7721 59.0074 77.7919C59.5688 77.5187 60.1451 77.2603 60.6966 76.9573C60.4432 76.9374 60.0805 76.9275 59.6731 76.9026C58.5702 76.8231 58.2224 77.161 55.8377 78.2639H55.8327ZM44.237 35.9399C45.1014 34.822 45.3101 35.3288 47.6302 36.2976C49.5977 37.1174 50.1491 36.8491 50.1839 36.0244C50.2435 34.5935 48.7779 34.2656 46.259 33.0782C43.7402 31.8858 43.8793 32.9242 41.8075 35.2742C40.7195 36.5112 40.3966 37.5148 41.1468 38.4786C41.6237 39.0897 42.9353 37.6191 44.237 35.9399ZM9.97136 38.9456C8.03873 39.7555 6.93082 39.8846 6.92089 41.2161C6.91592 41.9812 7.31834 42.2942 8.8237 41.7626C10.5973 41.1366 10.7762 40.6945 11.3823 41.8322C12.2915 43.5412 13.2206 45.0516 13.6031 44.5398C14.2043 43.735 13.9956 42.7662 13.2255 41.4943C11.7599 39.0798 11.904 38.1358 9.97136 38.9407V38.9456ZM14.9147 26.8183C12.7883 25.7054 12.6591 24.9652 10.9898 26.3662C9.32052 27.7672 8.27223 28.3286 8.63988 29.2875C8.85351 29.839 9.33543 29.8936 10.6669 28.8751C12.2319 27.6728 12.2816 27.2803 13.1957 27.8368C14.5818 28.6764 15.9183 29.367 16.1468 28.8403C16.5095 28.0057 16.0326 27.3996 14.9147 26.8133V26.8183ZM14.4825 12.5646C14.8948 12.1025 14.5769 11.9833 13.7174 12.0628C12.6741 12.1572 12.2915 12.0826 11.745 12.2963C11.2134 12.8378 10.7216 13.4042 10.2198 13.9755C11.3724 13.1955 11.5115 13.0316 12.1474 13.0067C13.1957 12.957 14.2192 12.8577 14.4825 12.5646ZM14.7806 10.9002C15.188 10.5226 14.9048 10.5077 14.1049 10.7214C13.6925 10.8307 13.4044 10.9002 13.156 10.9598C12.8877 11.2082 12.5995 11.4467 12.3362 11.7051C12.4157 11.6802 12.5002 11.6554 12.6045 11.6305C13.5683 11.397 14.5222 11.1387 14.7756 10.9002H14.7806ZM4.05424 57.9788C3.89526 57.9241 3.76609 57.8695 3.63691 57.8198C3.84558 58.2818 4.07411 58.7389 4.29768 59.191C4.78953 59.4196 4.91871 59.4692 5.40062 60.2642C6.38432 61.8937 7.47236 63.6127 7.68102 63.5481C8.01886 63.4388 7.59159 62.5644 6.64764 61.1336C5.11247 58.8134 5.02801 58.3266 4.04927 57.9788H4.05424ZM10.8855 34.4246C9.03734 35.7461 7.9344 36.1585 8.10828 37.5595C8.20268 38.3693 8.65975 38.5979 10.1105 37.6738C11.8195 36.5808 11.9338 36.0691 12.7088 37.1174C13.8664 38.6923 15.0141 40.0585 15.3271 39.4276C15.8239 38.4339 15.486 37.4651 14.5272 36.3175C12.7138 34.1364 12.7287 33.1031 10.8855 34.4296V34.4246ZM10.5924 23.3704C9.00256 24.9204 7.98408 25.611 8.40141 26.4109C8.63988 26.8729 9.12676 26.8332 10.3986 25.6855C11.894 24.3292 11.9239 23.9666 12.8628 24.3094C14.2788 24.8211 15.65 25.2086 15.8487 24.6969C16.1667 23.8821 15.6649 23.42 14.5222 23.0921C12.3511 22.4612 12.1872 21.8203 10.5973 23.3753L10.5924 23.3704ZM10.1303 22.8735C11.5065 21.4924 11.5214 21.1794 12.4207 21.3384C13.772 21.5769 15.0787 21.711 15.2525 21.239C15.5308 20.4938 15.0439 20.1709 13.9558 20.0466C11.8891 19.8181 11.7152 19.2915 10.2545 20.8515C8.79886 22.4115 7.85491 23.1518 8.26727 23.7827C8.50574 24.1454 8.96281 24.046 10.1303 22.8735ZM14.6017 9.74759C14.5322 9.77243 14.4825 9.7923 14.4179 9.81714C14.1894 10.0109 13.9757 10.2196 13.7571 10.4183C14.4576 10.15 15.0638 9.8867 15.2575 9.72275C15.65 9.39485 15.3718 9.43956 14.6067 9.74262L14.6017 9.74759ZM9.67823 15.9628C11.0544 14.8897 11.124 14.6959 11.8295 14.6264C12.9026 14.5171 13.9459 14.3581 14.1695 14.0451C14.5272 13.5532 14.1844 13.4489 13.31 13.5781C11.6556 13.8215 11.6059 13.5433 10.1353 14.7406C9.44473 15.302 8.89823 15.7243 8.51568 16.0572C8.34179 16.2857 8.1679 16.5143 7.99898 16.7478C7.99898 16.7776 7.96918 16.8223 7.98905 16.8521C8.12319 17.026 8.51071 16.8769 9.67823 15.9678V15.9628ZM14.9048 30.9469C12.8877 29.3372 12.8231 28.3882 11.0345 30.0128C9.246 31.6374 8.14803 32.2585 8.42625 33.5104C8.5902 34.2308 9.06715 34.3451 10.4831 33.1726C12.1524 31.7915 12.2319 31.2946 13.0963 32.0895C14.398 33.2819 15.6748 34.2805 15.9481 33.6346C16.3803 32.6112 15.963 31.7964 14.8998 30.9518L14.9048 30.9469ZM9.56893 17.811C10.8408 16.6534 10.8607 16.4199 11.6556 16.4348C12.8579 16.4546 14.0155 16.405 14.1794 16.0423C14.4527 15.4709 14.0254 15.2921 13.0566 15.3269C11.2233 15.3915 11.0842 15.0288 9.73288 16.3304C8.3865 17.6271 7.52204 18.273 7.86981 18.6854C8.07351 18.9238 8.4809 18.7947 9.559 17.811H9.56893Z" fill="url(#paint2_radial_791_6886)"/>
<path d="M57.7057 9.81218C58.3615 9.68798 59.0173 9.61345 59.6632 9.59358C59.5092 9.08683 59.2608 8.7788 58.8186 8.49561C58.1479 8.54529 57.4921 8.63969 56.8462 8.77383C57.4822 9.09676 57.6113 9.31039 57.7107 9.81218H57.7057ZM54.5013 10.9002C54.7447 10.781 54.9732 10.6419 55.2266 10.5375C55.6439 10.3637 56.0613 10.2295 56.4736 10.1053C56.2252 9.58861 55.9172 9.3253 55.4253 9.14148C54.6453 9.38492 53.8802 9.68301 53.1549 10.0507C53.1797 10.0507 53.1996 10.0606 53.2244 10.0656C54.0889 10.2394 54.3125 10.4034 54.5013 10.9052V10.9002ZM55.2316 54.0589C55.6241 54.66 56.0017 55.2662 56.3743 55.8773C56.7171 55.2711 56.9953 55.1718 57.6759 55.2016C57.2685 54.5358 56.8462 53.8651 56.3991 53.1895C55.8476 53.2938 55.5346 53.567 55.2316 54.0589ZM63.0366 8.81357C63.6626 9.41969 63.7023 9.60352 63.6378 10.0805C64.224 10.2394 64.8003 10.4382 65.3667 10.6568C65.3766 10.1699 65.1928 9.81715 64.7755 9.36504C64.1495 9.12657 63.5682 8.94275 63.0366 8.80861V8.81357ZM60.0805 72.4412C60.2495 72.3269 60.4134 72.2176 60.5823 72.1034C61.1338 71.7308 61.3872 71.6513 61.7399 71.7158C61.8442 71.229 61.9138 70.7272 61.9635 70.2254C61.4716 70.2006 61.0593 70.4042 60.4333 70.8067C60.3389 71.383 60.2196 71.9295 60.0756 72.4462L60.0805 72.4412ZM51.2471 13.0216C51.8135 12.5347 52.4047 12.0876 53.0456 11.6852C52.7177 11.1586 52.3699 10.9052 51.8731 10.781C51.2173 11.1983 50.5963 11.6753 50.0001 12.1919C50.7453 12.2615 50.9738 12.4553 51.2521 13.0216H51.2471ZM57.661 76.9821C58.0336 76.8033 58.4311 76.6095 58.8236 76.4108C59.3204 76.1624 59.5589 76.0779 59.8172 76.063C60.0607 75.76 60.2644 75.4569 60.4432 75.1588C59.9116 75.1836 59.4545 75.3973 58.5752 75.8295C58.2721 76.2866 57.9691 76.6691 57.661 76.9772V76.9821ZM55.5595 51.9275C55.0925 51.237 54.6155 50.5364 54.1286 49.826C53.4927 49.8955 53.1499 50.139 52.8667 50.5961C53.299 51.2022 53.7262 51.8133 54.1485 52.4343C54.4466 51.9176 54.7646 51.8878 55.5595 51.9275ZM49.0859 42.1998C48.3804 42.2396 48.0078 42.4979 47.6799 43.0196C48.0774 43.6704 48.4947 44.3312 48.9518 45.0068C49.3145 44.4007 49.6374 44.3709 50.5217 44.4753C50.0398 43.735 49.5629 42.9749 49.0859 42.1949V42.1998ZM46.7906 37.7483C46.0702 37.6539 45.6529 37.8427 45.2704 38.2899C45.6082 39.0848 45.951 39.835 46.269 40.4908C46.2888 40.5404 46.3236 40.5901 46.3485 40.6348C46.7757 40.1032 47.1285 40.1728 48.0774 40.456C47.5905 39.5766 47.1632 38.6724 46.7956 37.7483H46.7906ZM51.57 46.0651C50.8894 46.1197 50.5217 46.3681 50.2187 46.8401C50.6459 47.4462 51.0831 48.0673 51.5253 48.6883C51.8532 48.1815 52.1861 48.1716 53.0456 48.2411C52.5587 47.5307 52.0668 46.8004 51.57 46.0601V46.0651ZM60.4581 65.8385C60.8953 65.4907 61.1735 65.5404 61.8741 65.7192C61.7846 65.0684 61.6555 64.4325 61.5064 63.8065C60.9003 63.7171 60.5227 63.8313 60.1203 64.1245C60.2594 64.7057 60.3786 65.2771 60.4581 65.8385ZM59.0074 60.8156C59.2558 61.3969 59.4744 61.9683 59.6632 62.5297C60.0706 62.1322 60.3637 62.1421 61.0742 62.2564C60.8556 61.5758 60.6022 60.9051 60.319 60.2344C59.7526 60.2443 59.385 60.4331 59.0074 60.8107V60.8156ZM45.3449 32.7155C44.5698 32.4721 44.1227 32.6062 43.6756 33.0236C43.8544 34.0271 44.0879 34.9413 44.3512 35.8008C44.8729 35.1847 45.1958 35.2096 46.0305 35.5822C45.7473 34.6333 45.5138 33.6794 45.3449 32.7155ZM59.072 74.9998C59.385 74.8309 59.703 74.652 60.0259 74.4732C60.483 74.2148 60.7214 74.1254 60.9649 74.1205C61.1338 73.7329 61.2977 73.3454 61.4269 72.938C60.95 72.9827 60.483 73.2311 59.6682 73.6783C59.4844 74.1552 59.2856 74.5974 59.072 74.9998ZM54.0541 79.501C54.382 79.4712 55.7532 78.8353 57.1692 78.1497C57.6213 77.9311 57.8647 77.8367 58.0883 77.8019C58.451 77.5038 58.7838 77.2107 59.077 76.9175C58.446 76.9871 57.8896 77.2902 56.5134 77.946C55.7781 78.4925 54.9434 79.0141 54.0492 79.506L54.0541 79.501ZM61.6058 8.54032C61.099 8.48567 60.6022 8.45587 60.1054 8.4509C60.7214 8.903 60.8158 9.11663 60.8357 9.60849C61.4518 9.64823 62.0579 9.74263 62.6541 9.86186C62.5845 9.32033 62.3709 8.97256 61.9386 8.59497C61.8293 8.58007 61.7051 8.55523 61.6058 8.54529V8.54032ZM45.0567 30.4898C44.9673 29.4763 44.9375 28.4677 44.9673 27.4691C44.3463 27.1412 43.8991 27.181 43.3974 27.489C43.3377 28.5274 43.3278 29.516 43.3824 30.4401C44.0631 29.8986 44.3661 29.9632 45.0567 30.4898ZM45.166 25.0993C45.2902 24.1603 45.479 23.2412 45.7125 22.342C45.1462 21.9097 44.7239 21.8153 44.2668 21.9644C43.9985 23.0375 43.7749 24.0709 43.6309 25.0496C44.3264 24.5925 44.6245 24.6224 45.166 25.1043V25.0993ZM57.2437 57.3081C57.5865 57.9092 57.8896 58.5154 58.1976 59.1215C58.5553 58.7042 58.8733 58.7091 59.6682 58.7985C59.3353 58.1129 58.9776 57.4273 58.5901 56.7467C57.9542 56.7566 57.5766 56.9355 57.2437 57.3081ZM46.3683 20.2603C46.6764 19.4306 47.0291 18.6307 47.4315 17.8706C46.8999 17.3986 46.4776 17.2843 45.9609 17.3936C45.5088 18.273 45.1114 19.2021 44.7735 20.1858C44.7984 20.1709 44.8282 20.1609 44.853 20.151C45.6181 19.8032 45.9262 19.838 46.3634 20.2653L46.3683 20.2603ZM48.3606 16.3155C48.8276 15.6101 49.3343 14.9443 49.8957 14.3283C49.4635 13.7967 49.081 13.5582 48.6289 13.5135C48.0078 14.1991 47.4315 14.9443 46.9099 15.7492C47.675 15.5852 47.9482 15.7343 48.3606 16.3205V16.3155ZM60.627 67.6022C60.6519 68.1884 60.637 68.7449 60.6022 69.2914C60.6221 69.2765 60.6419 69.2616 60.6618 69.2467C61.2779 68.7598 61.5263 68.72 62.0529 68.8591C62.0579 68.5362 62.0827 68.2182 62.0728 67.8953C62.0678 67.6469 62.038 67.4134 62.0231 67.1699C61.5014 67.1153 61.1189 67.2594 60.632 67.6022H60.627ZM11.4519 13.1806C11.6754 13.0713 11.8642 13.0216 12.1474 13.0067C12.3263 12.9968 12.5051 12.9869 12.679 12.972C12.8281 12.6739 12.9871 12.3807 13.1609 12.1025C12.7138 12.1274 12.4008 12.1323 12.1126 12.1919C11.8742 12.5049 11.6605 12.8328 11.4519 13.1806ZM12.9871 11.1188C12.9871 11.1188 12.9721 11.1288 12.9672 11.1387C12.8231 11.2927 12.6989 11.4815 12.5598 11.6454C12.5797 11.6405 12.5946 11.6355 12.6144 11.6305C12.9821 11.5411 13.3299 11.4517 13.6578 11.3573C13.8018 11.1486 13.9409 10.93 14.095 10.7313C13.7025 10.8356 13.4193 10.9052 13.1808 10.9598C13.1212 11.0145 13.0516 11.0642 12.992 11.1238L12.9871 11.1188ZM11.4966 27.3549C11.5214 27.643 11.5165 27.8964 11.5363 28.1746C12.2319 27.5983 12.4654 27.4493 13.0367 27.7573C12.992 27.0766 12.9324 26.3811 12.8479 25.6806C12.3958 25.5266 11.9934 25.621 11.3575 26.088C11.4121 26.5103 11.4668 26.9375 11.4966 27.3598V27.3549ZM7.06 46.2787C6.81159 46.7855 6.58802 47.2624 6.31974 47.799C6.21541 48.0027 6.14585 48.2064 6.05642 48.4101C6.83643 48.3355 7.06993 48.3306 7.42764 49.0758C7.66612 48.4945 7.92446 47.9232 8.19771 47.3618C7.88472 46.706 7.60153 46.3731 7.06 46.2787ZM66.107 9.93639C66.5292 10.4183 66.5491 10.6419 66.5044 11.1536C67.0509 11.4119 67.5875 11.6902 68.1042 11.9932C68.1042 11.9634 68.1042 11.9336 68.1091 11.9038C68.1389 11.4914 68.0793 11.1933 67.9104 10.8853C67.2894 10.5177 66.6882 10.2096 66.1119 9.94135L66.107 9.93639ZM5.97693 59.3351C5.88254 58.7638 5.82789 58.2024 5.79808 57.641C5.18699 56.6871 4.87399 56.1704 4.50635 55.8922C4.51132 56.3542 4.54113 56.8013 4.58087 57.2435C4.72992 57.3677 4.87896 57.5466 5.11247 57.9291C5.40062 58.4061 5.69375 58.883 5.97693 59.3301V59.3351ZM11.3277 34.1414C11.1786 35.1947 10.9799 36.233 10.6967 37.2763C11.6307 36.6255 11.9338 36.3423 12.366 36.7298C12.5648 35.8703 12.6989 35.0108 12.8181 34.1514C12.4107 33.7738 12.0133 33.734 11.3277 34.1364V34.1414ZM8.65479 42.8606C8.34179 43.576 8.01389 44.3063 7.64625 45.0764C8.53058 44.9472 8.81377 44.8578 9.12677 45.444C9.42983 44.833 9.72295 44.2268 9.98626 43.6356C9.6832 43.0643 9.36027 42.8258 8.65479 42.8606ZM11.5761 17.4731C11.1289 17.5079 10.7861 17.6619 10.2645 18.1886C10.2844 18.6655 10.3241 19.1524 10.3837 19.6492C10.97 18.9934 11.1985 18.7798 11.6854 18.7549C11.6258 18.3177 11.5811 17.8905 11.5761 17.4731ZM5.18202 55.2562C5.38075 55.6388 5.57948 56.0164 5.7782 56.384C5.79311 55.7729 5.84279 55.1668 5.92228 54.5657C5.39565 53.6068 5.11744 53.0851 4.71998 52.8616C4.63552 53.3932 4.58087 53.9148 4.54609 54.4315C4.75973 54.5259 4.91374 54.7296 5.18699 55.2562H5.18202ZM6.1856 52.5535C6.20547 52.5982 6.23031 52.643 6.25018 52.6877C6.39923 52.0567 6.58305 51.4357 6.78675 50.8196C6.4042 50.0595 6.11604 49.6869 5.5447 49.6024C5.29629 50.2831 5.1075 50.9687 4.94852 51.6444C5.58445 51.6195 5.7633 51.6642 6.18063 52.5535H6.1856ZM11.8295 15.3318C11.2532 15.3318 10.8954 15.3865 10.3688 15.7889C10.2893 16.2361 10.2446 16.7031 10.2347 17.1899C10.8607 16.5938 11.0395 16.4397 11.6258 16.4447C11.6655 16.0622 11.745 15.6995 11.8295 15.3368V15.3318ZM73.0475 15.6945C73.0127 15.5803 72.973 15.4809 72.9333 15.3766C72.6004 14.9592 72.2576 14.5518 71.9048 14.1444C71.9893 14.3531 72.0439 14.5618 72.1781 14.989C72.496 15.2722 72.7991 15.5554 73.0922 15.8386C73.0773 15.7889 73.0624 15.7442 73.0475 15.6896V15.6945ZM6.22037 60.4679C5.4503 59.2705 5.1224 58.6892 4.71998 58.3464C4.7945 58.8035 4.88393 59.2507 4.99323 59.668C5.1075 59.8021 5.2317 59.976 5.40559 60.2592C5.94712 61.1535 6.5135 62.0577 6.9507 62.6986C6.64764 61.9484 6.4042 61.2032 6.22534 60.4629L6.22037 60.4679ZM5.47515 61.1684C5.58445 61.4367 5.69375 61.7049 5.81795 61.9732C6.39923 62.942 7.03019 63.881 7.68102 64.7952C7.54191 64.4225 7.19414 63.8065 6.60789 62.9271C6.09617 62.1471 5.7484 61.5907 5.47018 61.1684H5.47515ZM10.9054 23.0872C11.0097 23.6983 11.1091 24.3094 11.2035 24.9254C11.8692 24.2796 12.0977 24.0908 12.6691 24.2497C12.5797 23.6486 12.4803 23.0375 12.366 22.4165C11.9189 22.3718 11.5165 22.5457 10.9103 23.0872H10.9054ZM71.5173 13.7122C71.4279 13.6079 71.3335 13.5035 71.2441 13.4042C71.0354 13.1707 70.8118 12.957 70.5982 12.7285C70.4193 12.5894 70.2405 12.4652 70.0616 12.3311C70.5137 12.9521 70.5336 13.1309 70.628 13.7023C71.0404 14.0202 71.4329 14.3432 71.8104 14.6711C71.8055 14.6264 71.7955 14.5866 71.7906 14.5419C71.7359 14.2239 71.6515 13.9706 71.5173 13.7072V13.7122ZM69.9225 12.2267C69.4704 11.8939 69.0233 11.5858 68.5811 11.3076C68.7451 11.6156 68.7302 11.8541 68.7798 12.4105C69.2419 12.7037 69.694 13.0117 70.1312 13.3297C70.1212 13.2104 70.1113 13.0912 70.1014 12.962C70.0815 12.6788 70.0169 12.4453 69.9225 12.2218V12.2267ZM10.1999 38.8662C9.90677 39.7604 9.56893 40.6796 9.17645 41.6334C10.2049 41.241 10.6123 40.9776 10.9551 41.2459C11.2432 40.4858 11.5115 39.7306 11.74 38.9854C11.3972 38.6178 10.9749 38.578 10.1999 38.8662ZM12.1375 21.3036C12.0332 20.7969 11.9537 20.31 11.8344 19.7883C11.427 19.8281 11.0544 20.0516 10.498 20.6081C10.5775 21.1397 10.6619 21.6812 10.7563 22.2277C11.4221 21.5222 11.6357 21.2788 12.1375 21.3086V21.3036ZM11.596 29.5558C11.6158 30.4898 11.596 31.389 11.5413 32.2585C12.2219 31.6573 12.4604 31.5381 13.0268 32.0299C13.0864 31.1704 13.1162 30.296 13.1063 29.4167C12.6442 29.1037 12.2518 29.0838 11.596 29.5607V29.5558ZM14.5818 9.75753C14.3384 9.9662 14.085 10.1699 13.8465 10.3835C14.1347 10.2693 14.403 10.16 14.6315 10.0606C14.7607 9.90658 14.8849 9.74263 15.0141 9.59855C14.8948 9.63829 14.7657 9.68798 14.6017 9.75256C14.5967 9.75256 14.5918 9.75256 14.5818 9.75753ZM12.0033 14.6015C12.1027 14.2836 12.2369 13.9904 12.3611 13.6874C11.7847 13.747 11.4568 13.8016 10.9103 14.1593C10.8656 14.2587 10.801 14.3382 10.7563 14.4376C10.6421 14.7058 10.5775 15.0039 10.5079 15.2971C11.1289 14.7953 11.3028 14.676 11.8295 14.6214C11.8891 14.6164 11.9437 14.6065 12.0033 14.6015Z" fill="url(#paint3_radial_791_6886)"/>
</g>
<defs>
<radialGradient id="paint0_radial_791_6886" cx="0" cy="0" r="1" gradientUnits="userSpaceOnUse" gradientTransform="translate(35.0506 32.5516) scale(62.321)">
<stop stop-color="white"/>
<stop offset="0.43" stop-color="#D6D6E0"/>
<stop offset="0.5" stop-color="#C7C7D1"/>
<stop offset="0.62" stop-color="#A3A3AB"/>
<stop offset="0.65" stop-color="#9A9AA2"/>
<stop offset="0.89" stop-color="#D1D1D1"/>
</radialGradient>
<radialGradient id="paint1_radial_791_6886" cx="0" cy="0" r="1" gradientUnits="userSpaceOnUse" gradientTransform="translate(34.6929 32.1591) scale(60.4778 60.4778)">
<stop stop-color="#CDCDCD"/>
<stop offset="0.43" stop-color="#A4A4AE"/>
<stop offset="0.5" stop-color="#95959F"/>
<stop offset="0.62" stop-color="#717179"/>
<stop offset="0.65" stop-color="#686870"/>
<stop offset="0.89" stop-color="#9F9F9F"/>
</radialGradient>
<radialGradient id="paint2_radial_791_6886" cx="0" cy="0" r="1" gradientUnits="userSpaceOnUse" gradientTransform="translate(32.6611 31.6821) scale(60.751 60.751)">
<stop offset="0.09" stop-color="#FF915E"/>
<stop offset="0.11" stop-color="#FD8D5C"/>
<stop offset="0.35" stop-color="#E05B45"/>
<stop offset="0.46" stop-color="#D6483D"/>
<stop offset="0.65" stop-color="#B0333D"/>
<stop offset="0.88" stop-color="#DB663D"/>
</radialGradient>
<radialGradient id="paint3_radial_791_6886" cx="0" cy="0" r="1" gradientUnits="userSpaceOnUse" gradientTransform="translate(33.6945 33.3962) scale(58.6396 58.6396)">
<stop offset="0.09" stop-color="#F5722E"/>
<stop offset="0.11" stop-color="#F36E2C"/>
<stop offset="0.35" stop-color="#D63C15"/>
<stop offset="0.46" stop-color="#CC290D"/>
<stop offset="0.65" stop-color="#A6140D"/>
<stop offset="0.88" stop-color="#D1470D"/>
</radialGradient>
<clipPath id="clip0_791_6886">
<rect width="82" height="82" fill="white"/>
</clipPath>
</defs>
</svg>
