<svg width="82" height="82" viewBox="0 0 82 82" fill="none" xmlns="http://www.w3.org/2000/svg">
<path d="M82 40.9975C82 63.6425 63.6425 82 40.9975 82C18.3525 82 0 63.6425 0 40.9975C0 18.3525 18.3575 0 40.9975 0C63.6376 0 82 18.3575 82 40.9975Z" fill="url(#paint0_radial_832_17074)"/>
<path d="M74.2496 33.6893C71.3482 33.9178 68.5908 35.5275 66.2608 38.2948C65.6994 38.9655 65.1827 39.7008 64.7008 40.461C61.844 38.1905 58.3762 35.7064 54.1732 32.9938C62.4253 18.7798 65.5602 10.8505 64.5765 7.48707C64.1145 7.16413 63.6475 6.85114 63.1706 6.54311L63.2451 6.67725C63.5183 7.28337 64.2685 11.3921 52.3945 31.861C49.5975 30.0923 46.9643 28.5075 44.4951 27.0965C46.1297 23.5145 46.5718 20.3348 46.6712 19.3809C47.5754 10.8356 42.0309 4.26768 38.8065 1.90282C37.6986 1.08803 36.3622 0.625992 34.7177 0.526628C33.6496 0.690579 32.5864 0.889306 31.548 1.13275C34.4097 0.799879 36.074 1.89288 37.3608 2.89149C40.4013 5.23647 45.3546 11.8293 44.5796 19.1623C44.52 19.7038 44.1523 22.6599 42.637 26.0532C30.768 19.4604 22.7295 16.8769 17.1353 15.9479C12.6242 15.1977 9.25574 16.0025 7.6063 17.2645C7.25356 17.7613 6.90579 18.2631 6.57292 18.7748C9.0272 17.9451 16.5739 13.8911 41.6881 27.9212C40.5355 29.9781 38.9407 32.0647 36.7199 33.7738C32.0945 37.326 26.3016 39.9443 18.9934 41.7875C11.3523 43.7896 6.82133 45.5136 3.95965 47.4214C2.79709 48.1964 1.50536 49.5428 1.44078 51.6394C1.71899 52.6777 2.03696 53.7012 2.39467 54.7048C2.31021 53.423 2.39467 52.1511 2.75735 51.4009C3.20448 50.4619 3.7957 49.5527 5.39546 48.6684C9.48924 46.4029 16.713 44.5597 19.5151 43.8244C27.0915 41.9166 33.1378 39.1742 37.9967 35.4431C40.4858 33.5303 42.2594 31.2301 43.5313 28.9646C45.9657 30.3606 48.569 31.9355 51.3314 33.6794C29.2428 71.3184 22.2078 75.3625 18.2432 75.0942C18.7549 75.437 19.2965 75.7351 19.8231 76.0531C21.8153 76.2766 24.6323 75.4321 28.6019 71.0153C33.7439 65.292 41.4943 54.5806 53.105 34.8171C57.2882 37.5198 60.751 40.0238 63.6127 42.3191C61.4416 46.5023 60.3784 51.2916 60.6517 54.3023C60.7709 55.604 61.1038 57.2385 61.4863 59.1264C62.7085 65.1529 64.6362 73.7826 60.4529 77.0865C61.3572 76.5996 62.2167 76.0531 63.0811 75.5016C63.9307 74.5378 64.4027 73.3951 64.7206 71.9841C65.6199 67.9599 64.4076 62.9172 63.5531 58.7091C63.1805 56.8808 62.8625 55.3009 62.7532 54.1135C62.5147 51.5102 63.4736 47.3667 65.2969 43.7002C76.9523 53.5223 77.2603 59.1761 77.2007 60.2195C77.464 59.7226 77.6926 59.2059 77.936 58.6992C78.1049 56.5281 77.5435 51.1326 66.3502 41.8073C66.8222 41.0422 67.319 40.3119 67.8705 39.6561C69.8577 37.2863 72.2921 35.6865 74.652 35.4878C79.5358 35.0903 81.2448 36.9733 81.8609 38.3246C81.8211 37.6986 81.8013 37.0726 81.7317 36.4566C80.7132 34.8469 78.6117 33.3515 74.2496 33.6992V33.6893Z" fill="url(#paint1_radial_832_17074)"/>
<defs>
<radialGradient id="paint0_radial_832_17074" cx="0" cy="0" r="1" gradientUnits="userSpaceOnUse" gradientTransform="translate(35.0506 32.5516) scale(62.321)">
<stop offset="0.13" stop-color="#FF8C38"/>
<stop offset="0.18" stop-color="#FB812E"/>
<stop offset="0.44" stop-color="#EB5000"/>
<stop offset="0.65" stop-color="#B81C00"/>
<stop offset="0.87" stop-color="#E33D00"/>
</radialGradient>
<radialGradient id="paint1_radial_832_17074" cx="0" cy="0" r="1" gradientUnits="userSpaceOnUse" gradientTransform="translate(36.0891 30.7879) scale(59.4096 59.4096)">
<stop offset="0.2" stop-color="#8A8D87"/>
<stop offset="0.27" stop-color="#6D6966"/>
<stop offset="0.36" stop-color="#453838"/>
<stop offset="0.65"/>
<stop offset="0.72" stop-color="#110E0E"/>
<stop offset="0.89" stop-color="#362C2C"/>
<stop offset="0.98" stop-color="#453838"/>
</radialGradient>
</defs>
</svg>
