<svg width="78" height="78" viewBox="0 0 78 78" fill="none" xmlns="http://www.w3.org/2000/svg">
<g clip-path="url(#clip0_791_6865)">
<path d="M19.8848 18.9493C-4.46642 43.4919 1.69148 69.1024 5.64945 73.0915C9.35559 76.8267 40.8625 85.7674 63.3702 63.0781C84.5617 41.7248 77.7766 9.41479 73.3055 4.90852C69.3428 0.919452 42.1264 -3.46709 19.8848 18.9493Z" fill="url(#paint0_radial_791_6865)"/>
<path d="M15.5849 14.9171C37.8265 -7.49928 69.3429 0.919429 73.3057 4.9085C73.3057 4.9085 16.9628 10.8562 5.6496 73.0962C1.68687 69.1072 -8.77109 39.4645 15.5802 14.9171H15.5849Z" fill="url(#paint1_radial_791_6865)"/>
<path d="M5.81115 72.3301C5.00816 67.8956 8.81407 46.5903 26.0904 28.1629C41.7322 11.4835 60.548 6.13445 69.0626 5.00909C72.0893 4.61162 73.3057 4.90852 73.3057 4.90852C73.3057 4.90852 17.4475 10.8275 5.81115 72.3349V72.3301Z" fill="url(#paint2_radial_791_6865)"/>
<path d="M6.11493 72.4163C6.11493 67.977 9.31741 47.9886 26.5937 29.5613C36.8141 18.6667 48.5312 12.3264 57.7015 9.11788C62.567 7.41785 68.0455 5.62205 72.317 5.08092C74.7878 4.81275 67.0192 6.46009 57.7015 9.98944C49.5956 13.0591 40.1639 18.3363 30.9413 26.8748C20.3123 36.711 10.1727 50.9481 6.11493 72.4163Z" fill="url(#paint3_radial_791_6865)"/>
<path d="M0.223351 46.7482C0.864799 44.3394 2.09068 43.2907 3.16451 42.7783C5.35018 41.7343 9.70252 41.9833 14.8198 45.005C25.4109 51.2688 30.2811 59.8312 32.7566 67.0958C34.3436 71.7553 33.2128 76.2711 30.3999 77.8754C25.8908 78.1627 21.6857 77.8945 18.0508 77.3247C18.2076 77.3342 18.3644 77.3486 18.545 77.363C26.0951 78.043 20.8922 63.8394 9.8213 56.0624C5.5735 53.079 3.05048 52.9305 1.80084 53.85C-0.204277 55.3297 0.641479 59.4624 0.631981 59.3954C0.0332947 55.6553 -0.199524 51.355 0.223351 46.7482ZM69.1053 6.74252C72.2508 9.56791 74.8071 13.3175 75.9759 16.4542C77.2493 19.8686 77.7767 23.0532 77.9905 24.8921C78.0381 29.2786 77.6199 34.0674 76.4891 38.952C76.7789 36.7204 76.7979 33.8663 76.4131 31.6443C74.9401 23.1633 69.1005 13.1499 60.795 7.06337C52.0998 0.684684 43.1576 1.01032 39.7128 1.4461C44.1791 0.397356 48.5362 -0.00969237 52.5702 0.00946284C59.2413 0.574541 64.8813 2.94979 69.1053 6.74252Z" fill="url(#paint4_radial_791_6865)"/>
<path d="M55.7348 10.0278C56.9179 11.5219 55.6731 12.2641 52.9267 13.5379C48.5221 15.578 32.1581 25.0694 22.9782 38.0327C21.4673 40.0631 20.0133 39.6465 19.1676 38.9377C18.3028 38.2099 18.3646 36.4332 19.5382 34.7428C20.7118 33.0523 30.7849 16.8662 51.3112 9.54888C53.7202 8.69168 55.2597 9.42437 55.7396 10.0278H55.7348Z" fill="#6E2F13"/>
<path d="M55.2783 9.22801C56.4614 10.7221 55.2165 11.4644 52.4702 12.7382C48.0656 14.7782 31.6968 24.2696 22.5217 37.2329C21.0107 39.2634 19.5568 38.8467 18.711 38.138C17.8463 37.4101 17.908 35.6335 19.0816 33.943C20.2553 32.2526 30.3284 16.0664 50.8547 8.74913C53.2637 7.89194 54.8031 8.62462 55.283 9.22801H55.2783Z" fill="url(#paint5_linear_791_6865)"/>
<path d="M48.6931 11.8906C48.6931 11.8906 46.1795 9.84098 42.6539 9.06999C39.7128 8.4235 38.0925 10.8754 40.3257 11.9528C42.4354 12.9729 46.2413 14.2036 49.7621 18.9589C51.4584 21.0803 54.5421 18.9684 53.1879 16.6459C51.8338 14.3233 49.7241 12.6137 48.6883 11.8906H48.6931Z" fill="url(#paint6_linear_791_6865)"/>
<path d="M40.6392 16.9236C40.6392 16.9236 38.2017 14.8836 34.6666 14.1749C31.7112 13.5763 30.0244 16.0904 32.2766 17.1343C34.4005 18.116 38.2254 19.2845 41.827 23.9775C43.5613 26.0702 46.607 23.9057 45.2148 21.6023C43.8226 19.3037 41.6845 17.6276 40.6392 16.9236Z" fill="url(#paint7_linear_791_6865)"/>
<path d="M33.4312 22.7277C33.4312 22.7277 30.8749 20.6397 27.3351 19.9741C24.3749 19.4186 22.8069 22.0333 25.0734 23.0437C27.2115 23.9967 31.0507 25.1125 34.7141 29.7576C36.4769 31.8312 39.494 29.6235 38.0734 27.3393C36.6527 25.0598 34.4908 23.4124 33.4359 22.7229L33.4312 22.7277Z" fill="url(#paint8_linear_791_6865)"/>
<path d="M27.036 28.752C27.036 28.752 24.4797 26.7407 20.9542 26.281C17.9892 25.8978 16.4735 28.7041 18.7922 29.5804C20.9779 30.4089 24.8504 31.29 28.7656 35.7532C30.6471 37.7501 33.4315 35.2839 31.8778 33.0715C30.3288 30.8782 28.1099 29.3697 27.036 28.7472V28.752Z" fill="url(#paint9_linear_791_6865)"/>
<path d="M48.945 10.77C48.945 10.77 46.4267 8.72041 42.9059 7.94941C39.9647 7.30292 38.3445 9.75479 40.5777 10.8323C42.6873 11.8523 46.4885 13.083 50.0141 17.8383C51.7104 19.9597 54.7941 17.8479 53.4399 15.5253C52.0857 13.2027 49.9761 11.4931 48.945 10.77Z" fill="url(#paint10_linear_791_6865)"/>
<path d="M40.8912 15.803C40.8912 15.803 38.4537 13.763 34.9187 13.0543C31.9633 12.4557 30.2765 14.9698 32.5287 16.0137C34.6526 16.9954 38.4775 18.1639 42.0839 22.8569C43.8181 24.9496 46.8638 22.7851 45.4717 20.4817C44.0795 18.1831 41.9366 16.507 40.8912 15.803Z" fill="url(#paint11_linear_791_6865)"/>
<path d="M33.6879 21.6071C33.6879 21.6071 31.1316 19.5192 27.587 18.8535C24.6269 18.298 23.0589 20.9127 25.3253 21.9231C27.4635 22.8761 31.3027 23.9919 34.966 28.637C36.7288 30.7106 39.746 28.5029 38.3253 26.2187C36.9046 23.9392 34.7427 22.2919 33.6879 21.6071Z" fill="url(#paint12_linear_791_6865)"/>
<path d="M27.2875 27.6314C27.2875 27.6314 24.7312 25.6201 21.2056 25.1651C18.2407 24.782 16.725 27.5835 19.0437 28.4646C21.2294 29.2931 25.1018 30.1742 29.017 34.6374C30.8986 36.6343 33.683 34.1681 32.1292 31.9557C30.5803 29.7624 28.3613 28.2539 27.2875 27.6314Z" fill="url(#paint13_linear_791_6865)"/>
<path d="M14.1259 44.5646C14.1259 44.5646 10.6336 50.6512 9.1274 55.6602C9.63105 55.938 9.91614 56.1343 9.91614 56.1343C9.91614 56.1343 12.2444 50.3638 15.043 45.1345C14.9479 44.9764 14.1307 44.5646 14.1307 44.5646H14.1259Z" fill="#A0A0AB"/>
<path d="M15.0382 45.1345C15.0382 45.1345 11.8594 51.2833 9.91133 56.1343C10.415 56.4121 10.5718 56.6419 10.5718 56.6419C10.5718 56.6419 13.0901 50.8714 15.8887 45.6421C15.7936 45.484 15.0382 45.1345 15.0382 45.1345Z" fill="url(#paint14_linear_791_6865)"/>
<path d="M67.3565 5.27725C67.3565 5.27725 63.8214 5.69388 60.5382 6.8384C61.1084 7.34601 61.6453 7.66686 61.6453 7.66686C61.6453 7.66686 65.0568 6.42656 68.0835 5.88543C67.6416 5.53585 67.3565 5.28204 67.3565 5.28204V5.27725Z" fill="#A0A0AB"/>
<path d="M68.6826 6.36431C68.6826 6.36431 64.297 7.63814 62.4012 8.37082C61.9878 8.04997 61.6742 7.76264 61.6742 7.76264C61.6742 7.76264 64.6154 6.54629 68.0839 5.88065C68.3358 6.00994 68.6826 6.36431 68.6826 6.36431Z" fill="url(#paint15_linear_791_6865)"/>
</g>
<defs>
<radialGradient id="paint0_radial_791_6865" cx="0" cy="0" r="1" gradientUnits="userSpaceOnUse" gradientTransform="translate(28.9411 22.4978) rotate(180) scale(58.9894 59.453)">
<stop offset="0.16" stop-color="#B36343"/>
<stop offset="0.23" stop-color="#A55739"/>
<stop offset="0.44" stop-color="#81391E"/>
<stop offset="0.61" stop-color="#6B270E"/>
<stop offset="0.72" stop-color="#642109"/>
<stop offset="0.92" stop-color="#7A2E01"/>
</radialGradient>
<radialGradient id="paint1_radial_791_6865" cx="0" cy="0" r="1" gradientUnits="userSpaceOnUse" gradientTransform="translate(35.7359 32.1376) rotate(180) scale(52.8172 53.2323)">
<stop offset="0.22" stop-color="#B36343"/>
<stop offset="0.28" stop-color="#A55739"/>
<stop offset="0.47" stop-color="#81391E"/>
<stop offset="0.62" stop-color="#6B270E"/>
<stop offset="0.72" stop-color="#642109"/>
<stop offset="0.92" stop-color="#7A2E01"/>
</radialGradient>
<radialGradient id="paint2_radial_791_6865" cx="0" cy="0" r="1" gradientUnits="userSpaceOnUse" gradientTransform="translate(38.6628 34.4937) rotate(180) scale(60.2343 60.7076)">
<stop offset="0.13" stop-color="#9D4D2E"/>
<stop offset="0.2" stop-color="#8E4325"/>
<stop offset="0.4" stop-color="#6A2D11"/>
<stop offset="0.56" stop-color="#541F04"/>
<stop offset="0.67" stop-color="#4D1A00"/>
<stop offset="1" stop-color="#702E06"/>
</radialGradient>
<radialGradient id="paint3_radial_791_6865" cx="0" cy="0" r="1" gradientUnits="userSpaceOnUse" gradientTransform="translate(38.6149 29.4847) rotate(180) scale(59.8352 60.3054)">
<stop offset="0.13" stop-color="#E39E8C"/>
<stop offset="0.15" stop-color="#DE9986"/>
<stop offset="0.34" stop-color="#AE6D55"/>
<stop offset="0.5" stop-color="#8B4D31"/>
<stop offset="0.63" stop-color="#753A1B"/>
<stop offset="0.72" stop-color="#6E3314"/>
<stop offset="1" stop-color="#702E06"/>
</radialGradient>
<radialGradient id="paint4_radial_791_6865" cx="0" cy="0" r="1" gradientUnits="userSpaceOnUse" gradientTransform="translate(32.9704 26.4772) rotate(180) scale(66.4587 66.981)">
<stop stop-color="white"/>
<stop offset="0.43" stop-color="#D6D6E0"/>
<stop offset="0.5" stop-color="#C7C7D1"/>
<stop offset="0.62" stop-color="#A3A3AB"/>
<stop offset="0.65" stop-color="#9A9AA2"/>
<stop offset="0.89" stop-color="#D1D1D1"/>
</radialGradient>
<linearGradient id="paint5_linear_791_6865" x1="33.5784" y1="17.594" x2="38.7521" y2="26.7492" gradientUnits="userSpaceOnUse">
<stop stop-color="white"/>
<stop offset="0.92" stop-color="#C3B8BA"/>
</linearGradient>
<linearGradient id="paint6_linear_791_6865" x1="48.6313" y1="11.7469" x2="45.3665" y2="15.5" gradientUnits="userSpaceOnUse">
<stop stop-color="#8F462A"/>
<stop offset="1" stop-color="#83624D"/>
</linearGradient>
<linearGradient id="paint7_linear_791_6865" x1="40.3731" y1="16.8326" x2="37.2733" y2="20.8462" gradientUnits="userSpaceOnUse">
<stop stop-color="#8F462A"/>
<stop offset="1" stop-color="#83624D"/>
</linearGradient>
<linearGradient id="paint8_linear_791_6865" x1="33.2791" y1="22.5409" x2="30.3523" y2="26.2971" gradientUnits="userSpaceOnUse">
<stop stop-color="#8F462A"/>
<stop offset="1" stop-color="#83624D"/>
</linearGradient>
<linearGradient id="paint9_linear_791_6865" x1="26.8032" y1="28.8813" x2="23.9612" y2="32.811" gradientUnits="userSpaceOnUse">
<stop stop-color="#8F462A"/>
<stop offset="1" stop-color="#83624D"/>
</linearGradient>
<linearGradient id="paint10_linear_791_6865" x1="48.888" y1="10.6311" x2="45.6232" y2="14.3794" gradientUnits="userSpaceOnUse">
<stop stop-color="white"/>
<stop offset="0.92" stop-color="#C3B8BA"/>
</linearGradient>
<linearGradient id="paint11_linear_791_6865" x1="40.6299" y1="15.7121" x2="37.5301" y2="19.7304" gradientUnits="userSpaceOnUse">
<stop stop-color="white"/>
<stop offset="0.92" stop-color="#C3B8BA"/>
</linearGradient>
<linearGradient id="paint12_linear_791_6865" x1="33.5311" y1="21.4251" x2="30.6042" y2="25.1813" gradientUnits="userSpaceOnUse">
<stop stop-color="white"/>
<stop offset="0.92" stop-color="#C3B8BA"/>
</linearGradient>
<linearGradient id="paint13_linear_791_6865" x1="27.0594" y1="27.7607" x2="24.2174" y2="31.6904" gradientUnits="userSpaceOnUse">
<stop stop-color="white"/>
<stop offset="0.92" stop-color="#C3B8BA"/>
</linearGradient>
<linearGradient id="paint14_linear_791_6865" x1="11.256" y1="49.0804" x2="14.4281" y2="52.4988" gradientUnits="userSpaceOnUse">
<stop stop-color="white"/>
<stop offset="0.3" stop-color="#EBEBEF"/>
<stop offset="0.72" stop-color="#D5D5DE"/>
<stop offset="1" stop-color="#CECED8"/>
</linearGradient>
<linearGradient id="paint15_linear_791_6865" x1="64.9717" y1="5.986" x2="65.3914" y2="8.14932" gradientUnits="userSpaceOnUse">
<stop stop-color="white"/>
<stop offset="0.3" stop-color="#EBEBEF"/>
<stop offset="0.72" stop-color="#D5D5DE"/>
<stop offset="1" stop-color="#CECED8"/>
</linearGradient>
<clipPath id="clip0_791_6865">
<rect width="78" height="78" fill="white" transform="matrix(-1 0 0 1 78 0)"/>
</clipPath>
</defs>
</svg>
