<svg width="83" height="79" viewBox="0 0 83 79" fill="none" xmlns="http://www.w3.org/2000/svg">
<g clip-path="url(#clip0_791_6835)">
<path d="M77 35.4978C77 55.1051 61.1051 71 41.4978 71C21.8906 71 6 55.1051 6 35.4978C6 15.8906 21.8949 0 41.4978 0C61.1008 0 77 15.8949 77 35.4978Z" fill="url(#paint0_radial_791_6835)"/>
<path d="M70.2894 29.17C67.7771 29.3679 65.3897 30.7617 63.3722 33.1577C62.8861 33.7384 62.4387 34.3751 62.0214 35.0333C59.5479 33.0674 56.5453 30.9165 52.9061 28.5678C60.0512 16.2605 62.7656 9.39497 61.9139 6.4827C61.5138 6.20309 61.1095 5.93208 60.6965 5.66537L60.761 5.78152C60.9976 6.30633 61.6472 9.86386 51.3661 27.587C48.9442 26.0556 46.6643 24.6833 44.5263 23.4616C45.9416 20.3601 46.3244 17.607 46.4105 16.781C47.1934 9.38206 42.3927 3.69518 39.6008 1.64756C38.6416 0.942078 37.4844 0.542018 36.0605 0.455983C35.1356 0.59794 34.2151 0.770009 33.316 0.980794C35.7938 0.692578 37.2349 1.63896 38.349 2.50361C40.9817 4.53402 45.2705 10.2424 44.5994 16.5918C44.5478 17.0606 44.2295 19.6202 42.9175 22.5583C32.6406 16.8499 25.6805 14.613 20.8367 13.8085C16.9307 13.159 14.0142 13.8559 12.586 14.9485C12.2806 15.3787 11.9795 15.8131 11.6912 16.2562C13.8163 15.5378 20.3506 12.0276 42.0958 24.1757C41.0978 25.9566 39.717 27.7633 37.7941 29.2431C33.7892 32.3189 28.7734 34.5859 22.4456 36.1818C15.8295 37.9154 11.9063 39.4081 9.42853 41.06C8.42193 41.7311 7.30348 42.8968 7.24756 44.7122C7.48846 45.6112 7.76377 46.4974 8.07349 47.3663C8.00036 46.2565 8.07349 45.1552 8.38752 44.5057C8.77467 43.6926 9.28658 42.9054 10.6717 42.1397C14.2164 40.1781 20.4711 38.5822 22.8972 37.9455C29.4574 36.2937 34.6926 33.9191 38.8997 30.6885C41.0548 29.0324 42.5905 27.0407 43.6918 25.0791C45.7996 26.2879 48.0537 27.6515 50.4455 29.1614C31.32 61.7513 25.2288 65.2529 21.796 65.0206C22.2391 65.3174 22.708 65.5755 23.1639 65.8508C24.8889 66.0444 27.328 65.3131 30.7651 61.4889C35.2174 56.5333 41.9281 47.2588 51.9812 30.1465C55.6033 32.4866 58.6016 34.6547 61.0794 36.6421C59.1995 40.2642 58.2789 44.411 58.5155 47.0179C58.6188 48.1449 58.907 49.5602 59.2382 51.1949C60.2964 56.4128 61.9655 63.8849 58.3435 66.7456C59.1264 66.324 59.8706 65.8508 60.6191 65.3733C61.3547 64.5388 61.7633 63.5494 62.0386 62.3277C62.8173 58.8433 61.7676 54.4771 61.0277 50.8335C60.7051 49.2505 60.4298 47.8825 60.3352 46.8544C60.1287 44.6003 60.9589 41.0127 62.5376 37.838C72.6295 46.3425 72.8962 51.2379 72.8446 52.1412C73.0726 51.7111 73.2704 51.2637 73.4812 50.8249C73.6275 48.9451 73.1414 44.2734 63.4496 36.199C63.8583 35.5366 64.2884 34.9042 64.7659 34.3364C66.4866 32.2845 68.5945 30.8993 70.6378 30.7272C74.8664 30.3831 76.3462 32.0135 76.8796 33.1835C76.8452 32.6415 76.828 32.0995 76.7678 31.5661C75.8859 30.1723 74.0663 28.8775 70.2894 29.1786V29.17Z" fill="url(#paint1_radial_791_6835)"/>
</g>
<g clip-path="url(#clip1_791_6835)">
<path d="M13.5115 38.8758C-3.03485 55.5522 1.14936 72.9542 3.83875 75.6647C6.35703 78.2028 27.7656 84.2779 43.0593 68.8608C57.4586 54.3515 52.8482 32.3972 49.8102 29.3353C47.1176 26.6248 28.6244 23.6442 13.5115 38.8758Z" fill="url(#paint2_radial_791_6835)"/>
<path d="M10.5895 36.136C25.7024 20.9043 47.1174 26.6247 49.8101 29.3353C49.8101 29.3353 11.5258 33.3766 3.83863 75.668C1.14601 72.9574 -5.96004 52.8156 10.5863 36.136H10.5895Z" fill="url(#paint3_radial_791_6835)"/>
<path d="M3.94841 75.1473C3.40278 72.1342 5.98885 57.6575 17.7279 45.1364C28.3563 33.8029 41.1414 30.1683 46.927 29.4036C48.9835 29.1335 49.8101 29.3353 49.8101 29.3353C49.8101 29.3353 11.8551 33.3571 3.94841 75.1506V75.1473Z" fill="url(#paint4_radial_791_6835)"/>
<path d="M4.15504 75.2059C4.15504 72.1895 6.33108 58.6076 18.0701 46.0865C25.0147 38.6838 32.9764 34.3756 39.2075 32.1955C42.5135 31.0403 46.2361 29.8201 49.1385 29.4524C50.8174 29.2702 45.5387 30.3895 39.2075 32.7877C33.6996 34.8735 27.2909 38.4593 21.0242 44.261C13.802 50.9446 6.91222 60.6185 4.15504 75.2059Z" fill="url(#paint5_radial_791_6835)"/>
<path d="M0.15184 57.7649C0.587696 56.1282 1.42067 55.4156 2.15032 55.0674C3.63546 54.358 6.59282 54.5272 10.07 56.5805C17.2664 60.8366 20.5757 66.6546 22.2578 71.5908C23.3361 74.7569 22.5677 77.8254 20.6564 78.9154C17.5925 79.1107 14.7352 78.9284 12.2654 78.5412C12.3719 78.5477 12.4785 78.5575 12.6012 78.5673C17.7313 79.0293 14.1961 69.3782 6.67353 64.0938C3.7872 62.0666 2.07284 61.9657 1.22372 62.5905C-0.138725 63.5959 0.435955 66.4041 0.429497 66.3585C0.0227013 63.8172 -0.135498 60.8952 0.15184 57.7649ZM46.9562 30.5816C49.0935 32.5014 50.8305 35.0492 51.6247 37.1805C52.49 39.5006 52.8484 41.6644 52.9936 42.914C53.0259 45.8946 52.7418 49.1485 51.9734 52.4675C52.1704 50.9512 52.1833 49.0118 51.9218 47.502C50.9209 41.7393 46.953 34.9353 41.3095 30.7996C35.4012 26.4653 29.3251 26.6866 26.9844 26.9827C30.0192 26.2701 32.9798 25.9935 35.7209 26.0065C40.2538 26.3905 44.0861 28.0045 46.9562 30.5816Z" fill="url(#paint6_radial_791_6835)"/>
<path d="M37.8712 32.8137C38.6751 33.829 37.8292 34.3333 35.9631 35.1989C32.9703 36.585 21.8511 43.0343 15.6135 51.8427C14.5868 53.2224 13.5989 52.9393 13.0242 52.4577C12.4366 51.9631 12.4786 50.7559 13.2761 49.6073C14.0735 48.4586 20.918 37.4603 34.8654 32.4883C36.5023 31.9059 37.5483 32.4037 37.8744 32.8137H37.8712Z" fill="#6E2F13"/>
<path d="M37.5611 32.2703C38.3651 33.2855 37.5192 33.7899 35.6531 34.6555C32.6602 36.0416 21.5378 42.4909 15.3035 51.2993C14.2768 52.679 13.2888 52.3959 12.7142 51.9143C12.1266 51.4197 12.1685 50.2125 12.966 49.0639C13.7634 47.9152 20.608 36.9169 34.5554 31.9449C36.1922 31.3625 37.2383 31.8603 37.5644 32.2703H37.5611Z" fill="url(#paint7_linear_791_6835)"/>
<path d="M33.0862 34.0795C33.0862 34.0795 31.3783 32.6868 28.9827 32.1629C26.9842 31.7237 25.8832 33.3897 27.4007 34.1218C28.8341 34.8149 31.4202 35.6512 33.8126 38.8823C34.9652 40.3238 37.0605 38.8888 36.1404 37.3107C35.2202 35.7325 33.7868 34.5708 33.0829 34.0795H33.0862Z" fill="url(#paint8_linear_791_6835)"/>
<path d="M27.6137 37.4994C27.6137 37.4994 25.9575 36.1132 23.5554 35.6316C21.5473 35.2249 20.4011 36.9332 21.9315 37.6426C23.3746 38.3096 25.9736 39.1036 28.4209 42.2924C29.5993 43.7144 31.6688 42.2436 30.7228 40.6785C29.7769 39.1166 28.324 37.9777 27.6137 37.4994Z" fill="url(#paint9_linear_791_6835)"/>
<path d="M22.716 41.4431C22.716 41.4431 20.9791 40.0244 18.5738 39.5721C16.5624 39.1947 15.497 40.9713 17.037 41.6579C18.4899 42.3054 21.0985 43.0636 23.5878 46.2199C24.7856 47.6289 26.8357 46.1288 25.8703 44.5767C24.905 43.0278 23.436 41.9085 22.7193 41.4399L22.716 41.4431Z" fill="url(#paint10_linear_791_6835)"/>
<path d="M18.3705 45.5366C18.3705 45.5366 16.6336 44.1699 14.238 43.8576C12.2233 43.5972 11.1934 45.5041 12.769 46.0995C14.2541 46.6625 16.8854 47.2612 19.5457 50.2938C20.8242 51.6507 22.7162 49.9749 21.6604 48.4716C20.6079 46.9813 19.1002 45.9563 18.3705 45.5333V45.5366Z" fill="url(#paint11_linear_791_6835)"/>
<path d="M33.2575 33.3181C33.2575 33.3181 31.5464 31.9254 29.154 31.4015C27.1556 30.9622 26.0546 32.6283 27.5721 33.3604C29.0055 34.0535 31.5884 34.8897 33.984 38.1209C35.1366 39.5624 37.2319 38.1274 36.3118 36.5492C35.3916 34.9711 33.9581 33.8094 33.2575 33.3181Z" fill="url(#paint12_linear_791_6835)"/>
<path d="M27.7848 36.738C27.7848 36.738 26.1286 35.3518 23.7265 34.8702C21.7184 34.4635 20.5722 36.1718 22.1025 36.8811C23.5457 37.5482 26.1447 38.3422 28.5952 41.531C29.7736 42.953 31.8431 41.4822 30.8971 39.9171C29.9512 38.3552 28.4951 37.2163 27.7848 36.738Z" fill="url(#paint13_linear_791_6835)"/>
<path d="M22.8907 40.6817C22.8907 40.6817 21.1537 39.263 18.7452 38.8107C16.7338 38.4333 15.6684 40.2099 17.2084 40.8965C18.6613 41.544 21.2699 42.3022 23.7591 45.4585C24.9569 46.8674 27.0071 45.3674 26.0417 43.8153C25.0764 42.2664 23.6074 41.147 22.8907 40.6817Z" fill="url(#paint14_linear_791_6835)"/>
<path d="M18.5414 44.7752C18.5414 44.7752 16.8045 43.4085 14.4089 43.0994C12.3942 42.8391 11.3643 44.7426 12.9399 45.3414C14.425 45.9043 17.0563 46.503 19.7166 49.5357C20.9951 50.8926 22.8871 49.2168 21.8313 47.7135C20.7788 46.2232 19.2711 45.1982 18.5414 44.7752Z" fill="url(#paint15_linear_791_6835)"/>
<path d="M9.59857 56.2811C9.59857 56.2811 7.22558 60.4168 6.20213 63.8204C6.54435 64.0091 6.73807 64.1426 6.73807 64.1426C6.73807 64.1426 8.32006 60.2216 10.2217 56.6683C10.1571 56.5609 9.6018 56.2811 9.6018 56.2811H9.59857Z" fill="#A0A0AB"/>
<path d="M10.2185 56.6683C10.2185 56.6683 8.05857 60.8463 6.73486 64.1426C7.07709 64.3313 7.18363 64.4875 7.18363 64.4875C7.18363 64.4875 8.89477 60.5665 10.7964 57.0132C10.7318 56.9058 10.2185 56.6683 10.2185 56.6683Z" fill="url(#paint16_linear_791_6835)"/>
<path d="M45.7682 29.5858C45.7682 29.5858 43.3662 29.8689 41.1353 30.6466C41.5227 30.9915 41.8875 31.2095 41.8875 31.2095C41.8875 31.2095 44.2056 30.3668 46.2622 29.9991C45.962 29.7615 45.7682 29.5891 45.7682 29.5891V29.5858Z" fill="#A0A0AB"/>
<path d="M46.6689 30.3245C46.6689 30.3245 43.689 31.19 42.4008 31.6879C42.1199 31.4699 41.9068 31.2746 41.9068 31.2746C41.9068 31.2746 43.9053 30.4481 46.2621 29.9958C46.4333 30.0837 46.6689 30.3245 46.6689 30.3245Z" fill="url(#paint17_linear_791_6835)"/>
</g>
<g clip-path="url(#clip2_791_6835)">
<path d="M83 58.9988C83 70.0451 74.0451 79 63.0012 79C51.9573 79 43 70.0451 43 58.9988C43 47.9524 51.9549 39 62.9988 39C74.0427 39 82.9976 47.9549 82.9976 58.9988H83Z" fill="url(#paint18_radial_791_6835)"/>
<path d="M69.9421 44.1403C73.6113 42.6304 77.1593 45.0854 79.1393 47.223C78.6352 46.5323 78.0899 45.8755 77.5035 45.2575C75.7198 43.8373 74.0185 43.2702 73.0515 43.1684C69.1084 42.7492 65.7228 45.3447 64.6201 49.5883C63.4277 54.1736 64.6952 56.9509 65.5701 58.7564C66.8958 61.495 69.9809 64.791 71.6458 68.339C73.5701 72.4468 72.116 75.6968 71.0036 76.6807C70.3759 77.2357 69.4768 77.7664 68.5559 78.2051C69.2393 78.0064 69.9082 77.781 70.5577 77.5144C71.6168 76.8528 72.2566 76.1427 72.5983 75.4908C73.129 74.4753 73.3108 73.3241 73.2817 72.1221C73.1654 67.5029 69.6658 64.1972 66.6074 59.0303C63.4423 53.6816 64.8527 46.239 69.9445 44.1427L69.9421 44.1403ZM49.3253 44.4335C48.9085 44.8843 48.5159 45.4053 48.2469 46.0451C47.5683 47.6592 48.4311 50.0827 48.608 52.3463C48.8964 56.013 48.1427 58.1966 46.0827 62.319C44.9364 64.6092 45.026 67.0376 45.5907 68.654C45.6658 68.8479 45.7507 69.0418 45.8379 69.2333C46.4656 70.2851 47.1829 71.2714 47.9876 72.1851C44.8103 68.4117 45.6149 64.7619 47.2193 61.6646C49.6113 57.043 49.9142 53.6162 48.7582 48.5729C48.2105 46.1857 49.6065 44.4165 50.7576 43.2121C50.2608 43.5974 49.7858 44.0045 49.3278 44.4359L49.3253 44.4335Z" fill="url(#paint19_radial_791_6835)"/>
<path d="M70.9287 76.3002C70.2598 76.6104 69.9326 76.8261 70.0708 76.9521C70.158 77.0273 70.936 76.6565 71.697 76.2736C72.1768 76.0336 72.1574 76.1088 72.7124 76.1451C73.1341 76.1742 73.3183 76.1088 73.4491 75.9827C73.677 75.7646 73.3449 75.7719 72.819 75.6871C72.2253 75.5877 72.092 75.7646 70.9287 76.3002ZM71.6461 74.0657C70.9626 74.4753 70.6573 74.7928 70.8681 75.0376C70.999 75.1854 71.7915 74.691 72.5524 74.1724C73.0347 73.8476 73.042 73.9761 73.7182 74.1554C74.2344 74.296 74.4307 74.2136 74.5397 74.0197C74.7288 73.6828 74.3361 73.6295 73.6745 73.3702C72.9257 73.0745 72.8336 73.3581 71.6461 74.0682V74.0657ZM48.7875 48.139C49.391 48.156 49.9702 48.139 50.0453 47.9355C50.1665 47.6156 49.946 47.5114 49.4637 47.5259C48.5452 47.5526 48.4652 47.3466 47.8254 48.0688C47.1856 48.791 46.7712 49.1472 46.9578 49.3799C47.0668 49.5156 47.268 49.4453 47.7818 48.9C48.3876 48.2554 48.3925 48.1269 48.7924 48.139H48.7875ZM71.3819 71.1745C70.8584 71.6519 70.6694 72.0033 70.9287 72.2748C71.0935 72.4444 71.7115 71.8846 72.3392 71.2545C72.7584 70.8352 72.8118 70.9927 73.6794 71.1769C74.3992 71.3344 74.6294 71.2181 74.6948 70.9491C74.8087 70.4814 74.2562 70.4523 73.328 70.1978C72.3755 69.9361 72.3707 70.2754 71.3819 71.1769V71.1745ZM72.8796 68.4262C71.8448 68.2348 71.8763 68.6056 70.9335 69.6816C70.4343 70.2511 70.2744 70.651 70.5797 70.9224C70.7712 71.0897 71.3625 70.4208 71.9538 69.6743C72.3489 69.1799 72.4216 69.3423 73.3595 69.4562C74.1374 69.5556 74.3701 69.4053 74.4089 69.1048C74.4743 68.5886 73.8878 68.6104 72.8796 68.4262ZM73.6818 71.8676C72.8239 71.5623 72.7681 71.8773 71.6533 72.6625C71.0402 73.0939 70.7906 73.4235 71.0208 73.6877C71.1662 73.85 71.8787 73.3387 72.5912 72.7789C73.0541 72.4153 73.0808 72.5583 73.8563 72.7595C74.4743 72.9243 74.69 72.8297 74.7869 72.6019C74.9517 72.2021 74.4791 72.1487 73.6818 71.8676ZM65.7036 54.4377C66.547 55.063 66.8378 54.9976 66.9469 54.6025C67.1335 53.9167 66.4767 53.5895 65.4128 52.7195C64.3489 51.8519 64.298 52.3705 63.0547 53.2648C62.3979 53.7374 62.1338 54.1857 62.3834 54.7407C62.5409 55.0921 63.3286 54.5347 64.1332 53.8706C64.6688 53.4296 64.7124 53.6986 65.706 54.4377H65.7036ZM64.264 51.229C64.8408 50.8437 64.8578 51.1175 65.7715 51.9512C66.547 52.6589 66.8427 52.6225 66.9905 52.2396C67.2474 51.5756 66.6245 51.183 65.6527 50.2136C64.6809 49.2417 64.5791 49.7531 63.251 50.5189C62.5506 50.9237 62.2428 51.3405 62.4343 51.9197C62.5555 52.2857 63.394 51.8082 64.264 51.229ZM73.677 42.6619C73.1729 42.153 72.8215 41.9058 72.5961 41.9712C72.4482 42.0148 73.0541 42.6304 73.7327 43.2799C74.1859 43.7161 74.0478 43.704 74.0017 44.2687C73.9605 44.7607 74.1132 44.9812 74.3895 45.1218C74.8669 45.3666 74.7966 44.9473 74.879 44.3414C74.959 43.7573 74.6488 43.6386 73.6794 42.6619H73.677ZM64.882 48.8298C65.5267 48.5365 65.5 48.7861 66.295 49.6368C66.9687 50.359 67.274 50.3566 67.4825 50.0221C67.846 49.4405 67.2765 49.0212 66.4476 48.0397C65.6188 47.0582 65.4346 47.5138 63.9732 48.0833C63.2026 48.3838 62.8269 48.7352 62.9311 49.2805C62.9966 49.6271 63.9199 49.2733 64.8869 48.8298H64.882ZM72.0072 66.708C70.8681 66.5577 70.9723 66.9358 70.1701 68.0821C69.7436 68.688 69.6491 69.1048 70.0223 69.369C70.2574 69.5314 70.7639 68.8188 71.2534 68.0264C71.5806 67.5005 71.6897 67.6653 72.7124 67.7404C73.5606 67.8058 73.7787 67.641 73.7642 67.3332C73.7375 66.7976 73.1171 66.8485 72.0072 66.7055V66.708ZM68.9632 43.9076C69.6442 44.0457 69.5085 44.1669 69.809 44.9909C70.0708 45.7107 70.3446 45.8561 70.6815 45.7689C71.268 45.621 70.9481 45.1169 70.6573 44.2033C70.3761 43.3163 70.0199 43.4689 68.5367 43.1151C67.7636 42.9309 67.2959 42.943 67.1286 43.2654C67.022 43.4714 67.9478 43.7016 68.9632 43.9052V43.9076ZM72.2592 43.0739C72.7851 43.4496 72.647 43.4762 72.6954 44.1572C72.7391 44.7486 72.9281 44.9618 73.2286 45.0442C73.7448 45.1896 73.6043 44.7171 73.5824 43.9803C73.5631 43.2678 73.2335 43.2218 72.0993 42.3663C71.5079 41.9203 71.1202 41.7337 70.9045 41.8816C70.7663 41.9736 71.474 42.5165 72.2592 43.0763V43.0739ZM70.6088 43.2193C71.2268 43.5053 71.0838 43.5683 71.2462 44.3051C71.3867 44.9473 71.6218 45.1339 71.9538 45.1533C72.5258 45.1872 72.298 44.7025 72.1574 43.8955C72.0217 43.1151 71.6654 43.1442 70.3252 42.4753C69.6273 42.1263 69.1838 42.0148 68.9802 42.2281C68.8493 42.3638 69.6879 42.7904 70.6112 43.2169L70.6088 43.2193ZM74.8742 42.9334C74.6342 42.754 74.4016 42.565 74.152 42.3978C74.1108 42.3905 74.0696 42.3759 74.0356 42.3856C73.9048 42.4196 74.4864 43.0473 75.1311 43.7137C75.5649 44.1596 75.4388 44.1427 75.4243 44.688C75.4146 45.1654 75.5624 45.3859 75.8193 45.5362C76.2628 45.7979 76.178 45.3884 76.2216 44.8043C76.2628 44.242 75.9769 44.1088 75.0487 43.1103C74.9857 43.0424 74.9323 42.9891 74.8742 42.9309V42.9334ZM67.2692 44.9376C67.9769 44.9764 67.863 45.1339 68.3089 46.0064C68.6966 46.7673 68.9972 46.8837 69.3219 46.7286C69.8866 46.462 69.477 45.953 69.0238 44.9812C68.5852 44.0385 68.2556 44.2687 66.6997 44.1233C65.8902 44.0482 65.4201 44.1427 65.3062 44.5329C65.2335 44.7825 66.2077 44.8819 67.2644 44.9376H67.2692ZM65.7787 46.7043C66.4791 46.525 66.4064 46.748 67.0535 47.6325C67.6182 48.4056 67.9405 48.4493 68.2192 48.1657C68.7039 47.6737 68.1804 47.2036 67.5019 46.2002C66.8451 45.2284 66.5785 45.6041 65.0275 45.9215C64.2204 46.0888 63.7842 46.3481 63.7697 46.84C63.76 47.1551 64.7342 46.9661 65.7787 46.6995V46.7043ZM70.4585 66.3275C70.7469 65.7725 70.8705 65.9373 71.9102 65.9736C72.773 66.0076 72.979 65.8282 72.9402 65.5132C72.8699 64.963 72.2471 65.0406 71.1129 64.9364C69.9472 64.8273 70.0853 65.2127 69.3655 66.4268C68.985 67.0691 68.922 67.5029 69.3219 67.7598C69.5715 67.9197 70.0272 67.1636 70.4585 66.3275ZM70.7809 64.3596C71.6606 64.3766 71.8593 64.1875 71.7987 63.8603C71.6873 63.2932 71.0596 63.3853 69.8939 63.3005C68.6991 63.2108 68.8663 63.6083 68.2216 64.8806C67.8799 65.5544 67.8484 66.0051 68.2725 66.262C68.5391 66.422 68.9487 65.6295 69.3268 64.757C69.5812 64.1754 69.7194 64.345 70.7809 64.3596ZM69.574 62.5807C70.5264 62.6268 70.7445 62.4353 70.6791 62.096C70.5676 61.5071 69.8866 61.5871 68.6554 61.4756C67.4243 61.3617 67.5843 61.764 66.8936 63.0242C66.53 63.6883 66.484 64.1439 66.9105 64.425C67.182 64.6044 67.623 63.8143 68.035 62.937C68.3113 62.3553 68.4543 62.5298 69.5764 62.5807H69.574ZM68.3767 60.7801C69.3413 60.8673 69.5667 60.6807 69.5085 60.3293C69.4092 59.7234 68.716 59.7767 67.4704 59.6095C66.2247 59.4423 66.3798 59.8591 65.6479 61.1169C65.265 61.7786 65.2068 62.2439 65.6309 62.5492C65.8999 62.7431 66.3652 61.9555 66.8063 61.0782C67.0996 60.4941 67.2401 60.6807 68.3767 60.7801ZM67.1432 58.9334C68.1271 59.1902 68.3816 59.0303 68.3598 58.6474C68.3234 57.9809 67.6036 57.9228 66.3362 57.5301C65.0711 57.1375 65.185 57.6101 64.2956 58.8267C63.8278 59.4689 63.7188 59.9536 64.1235 60.3535C64.3804 60.608 64.9451 59.8446 65.4952 58.9842C65.8611 58.4123 65.9847 58.6328 67.1456 58.9334H67.1432ZM71.4716 75.2775C70.7833 75.6265 70.4537 75.8882 70.6064 76.0772C70.7009 76.1887 71.5006 75.767 72.2786 75.3284C72.7706 75.0497 72.7536 75.1515 73.3425 75.2678C73.7884 75.3575 73.9799 75.2872 74.1108 75.1272C74.3361 74.8534 73.9872 74.8267 73.4298 74.6474C72.7972 74.4414 72.6664 74.6692 71.4716 75.2775ZM45.494 67.2605C45.9787 68.0651 46.5167 68.9085 46.633 68.8503C46.8221 68.751 46.6161 68.3026 46.1459 67.6022C45.3801 66.4632 45.3437 66.1918 44.8299 66.1263C44.5852 66.0924 44.4107 66.0512 44.3137 66.0754C44.3864 66.2645 44.447 66.4608 44.5222 66.6498C44.5803 66.6813 44.6482 66.708 44.7282 66.7346C45.1813 66.8825 45.2007 66.7807 45.494 67.263V67.2605ZM45.3486 68.3947C45.7703 69.1848 46.2525 69.9337 46.7712 70.6559C46.7154 70.4789 46.5288 70.1566 46.2259 69.6962C45.7339 68.9473 45.5473 68.6104 45.3486 68.3947ZM45.3825 63.1939C44.6676 63.2763 44.275 63.1866 44.3089 63.7125C44.3258 64.0106 44.4737 64.1924 45.0044 64.1996C45.6806 64.2142 45.7436 64.0542 46.0175 64.6359C46.4343 65.5253 46.8657 66.3517 47.0281 66.216C47.2971 65.9906 47.188 65.5229 46.8148 64.8104C46.1241 63.5041 46.1701 63.1042 45.3825 63.1939ZM44.716 65.4671C45.2201 65.5568 45.2565 65.4308 45.5255 65.9543C45.9666 66.8098 46.4537 67.6871 46.6015 67.6071C46.8439 67.4665 46.6815 66.9867 46.2428 66.2427C45.5158 65.0139 45.5158 64.6843 44.9148 64.711C44.4179 64.7304 44.1586 64.6431 44.2119 65.0309C44.2435 65.2539 44.3525 65.4041 44.716 65.4671ZM46.9966 59.9294C46.1071 60.0724 45.6103 60.0094 45.5618 60.5886C45.5352 60.9231 45.7048 61.1024 46.3931 61.0321C47.205 60.9521 47.2971 60.7776 47.5322 61.3375C47.8836 62.1809 48.2495 62.9394 48.4361 62.7576C48.7294 62.4717 48.6688 62.0282 48.3658 61.3908C47.7915 60.1815 47.886 59.7864 46.9966 59.9294ZM46.0732 61.5677C45.2274 61.655 44.7427 61.5629 44.7282 62.1445C44.7185 62.4814 44.893 62.6728 45.5521 62.6462C46.3277 62.6171 46.4076 62.445 46.6645 63.0267C47.0474 63.9015 47.4401 64.6916 47.6097 64.5195C47.8763 64.2481 47.7939 63.7973 47.4691 63.1333C46.8487 61.8755 46.919 61.4805 46.0732 61.5701V61.5677ZM77.8817 45.6719C77.2032 44.9134 76.481 44.1936 75.6957 43.5465C75.8508 43.738 76.0278 43.9512 76.2095 44.1718C76.6021 44.6395 76.5003 44.608 76.5561 45.1169C76.6046 45.5629 76.7475 45.7858 76.9681 45.9579C77.3486 46.256 77.2322 45.861 77.1983 45.3205C77.1862 45.1412 77.1474 45.0055 77.0699 44.8625C77.082 44.877 77.0917 44.8915 77.1014 44.9037C77.4673 45.3859 77.3825 45.3447 77.4794 45.8319C77.5643 46.256 77.7024 46.4838 77.9011 46.668C78.2404 46.9879 78.1047 46.605 78.0223 46.0912C77.9956 45.9312 77.952 45.8028 77.8842 45.6695L77.8817 45.6719ZM78.633 46.6559C78.6088 46.5783 78.5846 46.5105 78.5579 46.4426C78.4004 46.2487 78.2332 46.0645 78.0684 45.8755C78.1168 45.9894 78.1386 46.0912 78.2162 46.3287C78.3471 46.7286 78.4803 46.9564 78.6476 47.16C78.936 47.5089 78.7784 47.1357 78.633 46.6583V46.6559ZM70.2356 77.1775C69.603 77.4683 69.2807 77.6646 69.3292 77.7761C69.3631 77.844 70.112 77.4974 70.8875 77.1218C71.3552 76.8964 71.3746 76.9376 71.7842 76.9473C72.0581 76.814 72.3392 76.688 72.6082 76.5401C72.4846 76.5304 72.3077 76.5256 72.1089 76.5135C71.5709 76.4747 71.4013 76.6395 70.238 77.1775H70.2356ZM64.5791 56.5317C65.0008 55.9864 65.1026 56.2336 66.2344 56.7061C67.1941 57.106 67.4631 56.9752 67.48 56.5729C67.5091 55.8749 66.7942 55.7149 65.5655 55.1357C64.3368 54.5541 64.4046 55.0606 63.394 56.2069C62.8633 56.8104 62.7057 57.2999 63.0717 57.7701C63.3043 58.0682 63.9441 57.3508 64.5791 56.5317ZM47.8642 57.9979C46.9214 58.3929 46.381 58.4559 46.3761 59.1054C46.3737 59.4786 46.57 59.6313 47.3043 59.372C48.1695 59.0666 48.2568 58.851 48.5524 59.4059C48.996 60.2396 49.4491 60.9764 49.6358 60.7267C49.929 60.3341 49.8272 59.8616 49.4516 59.2411C48.7366 58.0633 48.8069 57.6028 47.8642 57.9955V57.9979ZM50.2756 52.0821C49.2383 51.5392 49.1753 51.1781 48.361 51.8616C47.5467 52.545 47.0353 52.8188 47.2147 53.2866C47.3189 53.5556 47.554 53.5822 48.2035 53.0854C48.9669 52.4989 48.9911 52.3075 49.437 52.5789C50.1132 52.9885 50.7651 53.3254 50.8766 53.0685C51.0535 52.6613 50.8209 52.3656 50.2756 52.0797V52.0821ZM50.0647 45.1291C50.2659 44.9037 50.1108 44.8455 49.6915 44.8843C49.1826 44.9303 48.9959 44.894 48.7294 44.9982C48.47 45.2623 48.2301 45.5386 47.9853 45.8173C48.5476 45.4368 48.6155 45.3569 48.9257 45.3447C49.437 45.3205 49.9363 45.272 50.0647 45.1291ZM50.2101 44.3172C50.4089 44.133 50.2707 44.1257 49.8805 44.2299C49.6794 44.2832 49.5388 44.3172 49.4176 44.3463C49.2868 44.4674 49.1462 44.5838 49.0178 44.7098C49.0565 44.6977 49.0977 44.6856 49.1486 44.6734C49.6188 44.5595 50.0841 44.4335 50.2077 44.3172H50.2101ZM44.9778 67.2823C44.9002 67.2557 44.8372 67.229 44.7742 67.2048C44.876 67.4302 44.9875 67.6531 45.0965 67.8737C45.3365 67.9852 45.3995 68.0094 45.6345 68.3972C46.1144 69.1921 46.6451 70.0306 46.7469 69.9991C46.9117 69.9458 46.7033 69.5192 46.2428 68.8213C45.494 67.6895 45.4528 67.452 44.9754 67.2823H44.9778ZM48.3101 55.7925C47.4086 56.4371 46.8705 56.6383 46.9554 57.3217C47.0014 57.7168 47.2244 57.8282 47.932 57.3775C48.7657 56.8443 48.8215 56.5947 49.1995 57.106C49.7642 57.8743 50.324 58.5407 50.4767 58.233C50.7191 57.7483 50.5543 57.2757 50.0865 56.7158C49.2019 55.6519 49.2092 55.1478 48.3101 55.7949V55.7925ZM48.1671 50.4002C47.3916 51.1563 46.8948 51.4932 47.0983 51.8834C47.2147 52.1088 47.4522 52.0894 48.0726 51.5295C48.8021 50.8679 48.8166 50.691 49.2747 50.8582C49.9654 51.1078 50.6342 51.2969 50.7312 51.0473C50.8863 50.6498 50.6415 50.4244 50.0841 50.2645C49.025 49.9567 48.9451 49.644 48.1695 50.4026L48.1671 50.4002ZM47.9417 50.1578C48.613 49.4841 48.6203 49.3314 49.059 49.409C49.7182 49.5253 50.3555 49.5907 50.4404 49.3605C50.5761 48.997 50.3386 48.8394 49.8078 48.7789C48.7996 48.6674 48.7148 48.4105 48.0023 49.1715C47.2922 49.9324 46.8318 50.2935 47.0329 50.6013C47.1492 50.7782 47.3722 50.7298 47.9417 50.1578ZM50.1229 43.7549C50.089 43.767 50.0647 43.7767 50.0332 43.7889C49.9217 43.8834 49.8175 43.9852 49.7109 44.0821C50.0526 43.9512 50.3483 43.8228 50.4428 43.7428C50.6342 43.5829 50.4985 43.6047 50.1253 43.7525L50.1229 43.7549ZM47.7212 46.7867C48.3925 46.2633 48.4264 46.1687 48.7706 46.1348C49.294 46.0815 49.803 46.0039 49.912 45.8513C50.0865 45.6113 49.9193 45.5604 49.4928 45.6234C48.6857 45.7422 48.6615 45.6065 47.9441 46.1905C47.6073 46.4644 47.3407 46.6704 47.1541 46.8328C47.0693 46.9443 46.9844 47.0557 46.902 47.1696C46.902 47.1842 46.8875 47.206 46.8972 47.2205C46.9626 47.3054 47.1517 47.2327 47.7212 46.7892V46.7867ZM50.2707 54.096C49.2868 53.3108 49.2553 52.8479 48.3828 53.6404C47.5103 54.4329 46.9747 54.7358 47.1105 55.3466C47.1904 55.698 47.4231 55.7537 48.1138 55.1818C48.9281 54.508 48.9669 54.2657 49.3886 54.6534C50.0235 55.2351 50.6464 55.7222 50.7797 55.4071C50.9905 54.9079 50.7869 54.5105 50.2683 54.0985L50.2707 54.096ZM47.6679 47.6883C48.2883 47.1236 48.298 47.0097 48.6857 47.017C49.2722 47.0267 49.8369 47.0024 49.9169 46.8255C50.0502 46.5468 49.8418 46.4596 49.3692 46.4765C48.4749 46.508 48.407 46.3311 47.7478 46.9661C47.0911 47.5986 46.6694 47.9137 46.839 48.1148C46.9384 48.2311 47.1371 48.1681 47.663 47.6883H47.6679Z" fill="url(#paint20_radial_791_6835)"/>
<path d="M71.1492 43.7864C71.4691 43.7258 71.789 43.6895 72.104 43.6798C72.0289 43.4326 71.9077 43.2823 71.692 43.1442C71.3649 43.1684 71.045 43.2145 70.7299 43.2799C71.0401 43.4374 71.1031 43.5417 71.1516 43.7864H71.1492ZM69.586 44.3172C69.7048 44.259 69.8162 44.1912 69.9398 44.1403C70.1434 44.0554 70.347 43.99 70.5481 43.9294C70.427 43.6774 70.2767 43.5489 70.0368 43.4593C69.6563 43.578 69.2831 43.7234 68.9292 43.9028C68.9413 43.9028 68.951 43.9076 68.9632 43.91C69.3848 43.9948 69.4939 44.0748 69.586 44.3196V44.3172ZM69.9423 65.3702C70.1337 65.6634 70.3179 65.9591 70.4997 66.2572C70.6669 65.9615 70.8026 65.9131 71.1346 65.9276C70.9359 65.6028 70.7299 65.2757 70.5118 64.9461C70.2428 64.997 70.0901 65.1303 69.9423 65.3702ZM73.7496 43.2993C74.055 43.595 74.0743 43.6846 74.0428 43.9173C74.3288 43.9948 74.6099 44.0918 74.8862 44.1984C74.8911 43.9609 74.8014 43.7889 74.5978 43.5683C74.2925 43.452 74.0089 43.3623 73.7496 43.2969V43.2993ZM72.3076 74.3372C72.39 74.2814 72.47 74.2281 72.5524 74.1724C72.8214 73.9906 72.945 73.9518 73.1171 73.9833C73.1679 73.7458 73.2019 73.5011 73.2261 73.2563C72.9862 73.2442 72.785 73.3435 72.4797 73.5398C72.4336 73.821 72.3755 74.0875 72.3052 74.3396L72.3076 74.3372ZM67.9986 45.352C68.2749 45.1145 68.5633 44.8964 68.8759 44.7001C68.716 44.4432 68.5463 44.3196 68.304 44.259C67.9841 44.4626 67.6811 44.6952 67.3903 44.9473C67.7538 44.9812 67.8653 45.0757 68.001 45.352H67.9986ZM71.1274 76.5523C71.3091 76.465 71.503 76.3705 71.6945 76.2736C71.9368 76.1524 72.0531 76.1112 72.1792 76.1039C72.2979 75.9561 72.3973 75.8082 72.4845 75.6628C72.2252 75.6749 72.0022 75.7792 71.5733 75.99C71.4254 76.213 71.2776 76.3996 71.1274 76.5498V76.5523ZM70.1022 64.3305C69.8744 63.9936 69.6417 63.6519 69.4042 63.3054C69.094 63.3393 68.9268 63.458 68.7887 63.681C68.9995 63.9767 69.2079 64.2748 69.4139 64.5777C69.5593 64.3257 69.7144 64.3111 70.1022 64.3305ZM66.9444 59.5853C66.6002 59.6047 66.4185 59.7307 66.2585 59.9852C66.4524 60.3026 66.656 60.625 66.8789 60.9546C67.0559 60.6589 67.2134 60.6443 67.6448 60.6952C67.4097 60.3341 67.177 59.9633 66.9444 59.5829V59.5853ZM65.8247 57.4138C65.4733 57.3678 65.2697 57.4599 65.0831 57.678C65.2479 58.0657 65.4151 58.4317 65.5702 58.7516C65.5799 58.7758 65.5969 58.8001 65.609 58.8219C65.8174 58.5626 65.9895 58.5965 66.4524 58.7346C66.2149 58.3057 66.0065 57.8646 65.8271 57.4138H65.8247ZM68.1561 61.4708C67.8241 61.4974 67.6448 61.6186 67.4969 61.8488C67.7054 62.1445 67.9186 62.4474 68.1343 62.7504C68.2943 62.5032 68.4566 62.4983 68.8759 62.5323C68.6384 62.1857 68.3985 61.8294 68.1561 61.4683V61.4708ZM72.4918 71.1163C72.7051 70.9467 72.8408 70.9709 73.1825 71.0582C73.1389 70.7407 73.0759 70.4305 73.0031 70.1251C72.7075 70.0815 72.5233 70.1372 72.327 70.2802C72.3948 70.5638 72.453 70.8425 72.4918 71.1163ZM71.7841 68.6662C71.9053 68.9497 72.0119 69.2284 72.104 69.5023C72.3028 69.3084 72.4457 69.3132 72.7923 69.369C72.6857 69.037 72.5621 68.7098 72.4239 68.3826C72.1476 68.3875 71.9683 68.4795 71.7841 68.6637V68.6662ZM65.1195 54.9588C64.7414 54.84 64.5233 54.9055 64.3052 55.1091C64.3924 55.5986 64.5063 56.0445 64.6348 56.4638C64.8892 56.1633 65.0468 56.1754 65.4539 56.3572C65.3158 55.8943 65.2019 55.429 65.1195 54.9588ZM71.8156 75.5853C71.9683 75.5029 72.1234 75.4156 72.2809 75.3284C72.5039 75.2024 72.6202 75.1587 72.739 75.1563C72.8214 74.9673 72.9014 74.7782 72.9644 74.5795C72.7317 74.6013 72.5039 74.7225 72.1064 74.9406C72.0168 75.1733 71.9198 75.389 71.8156 75.5853ZM69.3679 77.781C69.5278 77.7664 70.1967 77.4562 70.8874 77.1218C71.108 77.0151 71.2267 76.9691 71.3358 76.9521C71.5127 76.8067 71.6751 76.6637 71.8181 76.5208C71.5103 76.5547 71.2388 76.7025 70.5675 77.0224C70.2088 77.289 69.8017 77.5435 69.3655 77.7834L69.3679 77.781ZM73.0516 43.166C72.8044 43.1394 72.5621 43.1248 72.3197 43.1224C72.6202 43.3429 72.6663 43.4471 72.676 43.6871C72.9765 43.7065 73.2722 43.7525 73.563 43.8107C73.529 43.5465 73.4248 43.3769 73.214 43.1927C73.1607 43.1854 73.1001 43.1733 73.0516 43.1684V43.166ZM64.9789 53.8731C64.9353 53.3787 64.9207 52.8867 64.9353 52.3996C64.6324 52.2396 64.4142 52.259 64.1695 52.4093C64.1404 52.9158 64.1355 53.3981 64.1622 53.8488C64.4942 53.5847 64.642 53.6162 64.9789 53.8731ZM65.0322 51.2436C65.0928 50.7855 65.1849 50.3372 65.2988 49.8985C65.0225 49.6877 64.8165 49.6416 64.5936 49.7143C64.4627 50.2378 64.3536 50.7419 64.2834 51.2193C64.6227 50.9964 64.7681 51.0109 65.0322 51.246V51.2436ZM70.9238 66.9552C71.091 67.2484 71.2388 67.5441 71.3891 67.8397C71.5636 67.6362 71.7187 67.6386 72.1064 67.6822C71.9441 67.3478 71.7696 67.0133 71.5805 66.6813C71.2703 66.6862 71.0862 66.7734 70.9238 66.9552ZM65.6187 48.8831C65.769 48.4783 65.941 48.0882 66.1374 47.7174C65.878 47.4871 65.672 47.4314 65.42 47.4847C65.1995 47.9137 65.0056 48.3669 64.8408 48.8467C64.8529 48.8394 64.8674 48.8346 64.8795 48.8297C65.2528 48.6601 65.403 48.6771 65.6163 48.8855L65.6187 48.8831ZM66.5905 46.9588C66.8184 46.6147 67.0656 46.2899 67.3394 45.9894C67.1286 45.7301 66.942 45.6138 66.7214 45.5919C66.4185 45.9264 66.1374 46.2899 65.8829 46.6825C66.2561 46.6025 66.3894 46.6752 66.5905 46.9612V46.9588ZM72.5742 71.9767C72.5863 72.2626 72.579 72.5341 72.5621 72.8007C72.5718 72.7934 72.5815 72.7861 72.5912 72.7789C72.8917 72.5413 73.0128 72.522 73.2697 72.5898C73.2722 72.4323 73.2843 72.2772 73.2794 72.1197C73.277 71.9985 73.2625 71.8846 73.2552 71.7658C73.0007 71.7392 72.8141 71.8095 72.5766 71.9767H72.5742ZM48.5863 45.4296C48.6954 45.3762 48.7875 45.352 48.9256 45.3447C49.0128 45.3399 49.1001 45.335 49.1849 45.3278C49.2576 45.1824 49.3352 45.0394 49.42 44.9037C49.2019 44.9158 49.0492 44.9182 48.9086 44.9473C48.7923 45.1 48.6881 45.2599 48.5863 45.4296ZM49.3352 44.4238C49.3352 44.4238 49.3279 44.4287 49.3255 44.4335C49.2552 44.5086 49.1946 44.6007 49.1267 44.6807C49.1364 44.6783 49.1437 44.6759 49.1534 44.6734C49.3327 44.6298 49.5024 44.5862 49.6623 44.5401C49.7326 44.4384 49.8005 44.3317 49.8756 44.2348C49.6842 44.2857 49.546 44.3196 49.4297 44.3463C49.4006 44.3729 49.3667 44.3972 49.3376 44.4262L49.3352 44.4238ZM48.6081 52.3438C48.6202 52.4844 48.6178 52.608 48.6275 52.7437C48.9668 52.4626 49.0807 52.3899 49.3594 52.5401C49.3376 52.2081 49.3085 51.8688 49.2673 51.5271C49.0468 51.452 48.8505 51.498 48.5403 51.7258C48.5669 51.9318 48.5936 52.1403 48.6081 52.3463V52.3438ZM46.4439 61.575C46.3227 61.8222 46.2137 62.0548 46.0828 62.3166C46.0319 62.4159 45.998 62.5153 45.9544 62.6147C46.3349 62.5783 46.4488 62.5759 46.6233 62.9394C46.7396 62.6559 46.8656 62.3772 46.9989 62.1033C46.8462 61.7834 46.7081 61.621 46.4439 61.575ZM75.2473 43.847C75.4533 44.0821 75.463 44.1912 75.4412 44.4408C75.7078 44.5668 75.9695 44.7025 76.2216 44.8503C76.2216 44.8358 76.2216 44.8213 76.224 44.8067C76.2385 44.6056 76.2094 44.4602 76.1271 44.3099C75.8241 44.1306 75.5309 43.9803 75.2497 43.8494L75.2473 43.847ZM45.9156 67.944C45.8696 67.6653 45.8429 67.3914 45.8284 67.1175C45.5303 66.6522 45.3776 66.4002 45.1982 66.2645C45.2007 66.4898 45.2152 66.708 45.2346 66.9237C45.3073 66.9842 45.38 67.0715 45.4939 67.2581C45.6345 67.4908 45.7775 67.7234 45.9156 67.9415V67.944ZM48.5257 55.6543C48.453 56.1681 48.3561 56.6746 48.2179 57.1836C48.6736 56.8661 48.8214 56.728 49.0322 56.917C49.1292 56.4977 49.1946 56.0785 49.2528 55.6592C49.054 55.475 48.8602 55.4556 48.5257 55.6519V55.6543ZM47.2219 59.9076C47.0692 60.2566 46.9092 60.6128 46.7299 60.9885C47.1613 60.9255 47.2994 60.8819 47.4521 61.1678C47.5999 60.8697 47.7429 60.5741 47.8714 60.2857C47.7235 60.007 47.566 59.8906 47.2219 59.9076ZM48.6469 47.5235C48.4288 47.5404 48.2616 47.6156 48.0071 47.8725C48.0168 48.1051 48.0362 48.3426 48.0653 48.585C48.3512 48.2651 48.4627 48.1609 48.7002 48.1487C48.6711 47.9355 48.6493 47.7271 48.6469 47.5235ZM45.5278 65.9543C45.6248 66.1409 45.7217 66.3251 45.8187 66.5044C45.8259 66.2063 45.8502 65.9106 45.8889 65.6174C45.6321 65.1497 45.4963 64.8952 45.3025 64.7861C45.2613 65.0454 45.2346 65.2999 45.2176 65.552C45.3218 65.598 45.397 65.6974 45.5303 65.9543H45.5278ZM46.0174 64.6359C46.0271 64.6577 46.0392 64.6795 46.0489 64.7013C46.1216 64.3935 46.2113 64.0906 46.3106 63.7901C46.124 63.4193 45.9835 63.2375 45.7048 63.1963C45.5836 63.5283 45.4915 63.8628 45.4139 64.1924C45.7241 64.1802 45.8114 64.2021 46.015 64.6359H46.0174ZM48.7705 46.4789C48.4894 46.4789 48.3149 46.5056 48.058 46.7019C48.0192 46.92 47.9974 47.1478 47.9925 47.3853C48.2979 47.0945 48.3852 47.0194 48.6711 47.0218C48.6905 46.8352 48.7293 46.6583 48.7705 46.4814V46.4789ZM78.633 46.6559C78.616 46.6001 78.5966 46.5517 78.5772 46.5008C78.4148 46.2972 78.2476 46.0985 78.0756 45.8997C78.1167 46.0015 78.1434 46.1033 78.2088 46.3117C78.3639 46.4499 78.5118 46.588 78.6548 46.7261C78.6475 46.7019 78.6402 46.6801 78.633 46.6534V46.6559ZM46.0344 68.4965C45.6587 67.9124 45.4988 67.6289 45.3025 67.4617C45.3388 67.6846 45.3824 67.9028 45.4357 68.1063C45.4915 68.1718 45.5521 68.2566 45.6369 68.3947C45.9011 68.831 46.1773 69.272 46.3906 69.5847C46.2428 69.2187 46.124 68.8552 46.0368 68.4941L46.0344 68.4965ZM45.6708 68.8382C45.7241 68.9691 45.7775 69.1 45.838 69.2308C46.1216 69.7034 46.4294 70.1615 46.7469 70.6074C46.679 70.4256 46.5094 70.1251 46.2234 69.6962C45.9738 69.3157 45.8041 69.0442 45.6684 68.8382H45.6708ZM48.3197 50.262C48.3706 50.5601 48.4191 50.8582 48.4651 51.1587C48.7899 50.8437 48.9014 50.7516 49.1801 50.8291C49.1364 50.5359 49.088 50.2378 49.0322 49.9349C48.8141 49.9131 48.6178 49.9979 48.3221 50.262H48.3197ZM77.8865 45.6889C77.8429 45.638 77.7968 45.5871 77.7532 45.5386C77.6514 45.4247 77.5424 45.3205 77.4382 45.209C77.3509 45.1412 77.2637 45.0806 77.1764 45.0151C77.397 45.3181 77.4067 45.4053 77.4527 45.684C77.6539 45.8391 77.8453 45.9967 78.0295 46.1566C78.0271 46.1348 78.0222 46.1154 78.0198 46.0936C77.9931 45.9385 77.952 45.8149 77.8865 45.6865V45.6889ZM77.1086 44.9643C76.888 44.8019 76.6699 44.6516 76.4542 44.5159C76.5342 44.6662 76.5269 44.7825 76.5512 45.0539C76.7765 45.1969 76.9971 45.3472 77.2104 45.5023C77.2055 45.4441 77.2007 45.3859 77.1958 45.3229C77.1861 45.1848 77.1546 45.0709 77.1086 44.9618V44.9643ZM47.9756 57.9591C47.8326 58.3953 47.6678 58.8437 47.4763 59.309C47.978 59.1175 48.1767 58.9891 48.344 59.12C48.4845 58.7492 48.6154 58.3808 48.7269 58.0173C48.5596 57.8379 48.3536 57.8185 47.9756 57.9591ZM48.9208 49.392C48.8699 49.1448 48.8311 48.9073 48.7729 48.6528C48.5742 48.6722 48.3924 48.7813 48.121 49.0527C48.1598 49.312 48.201 49.5762 48.247 49.8428C48.5718 49.4986 48.676 49.3799 48.9208 49.3944V49.392ZM48.6566 53.4174C48.6663 53.8731 48.6566 54.3117 48.6299 54.7358C48.9619 54.4426 49.0783 54.3844 49.3546 54.6244C49.3836 54.2051 49.3982 53.7786 49.3933 53.3496C49.1679 53.1969 48.9765 53.1872 48.6566 53.4199V53.4174ZM50.1131 43.7598C49.9944 43.8616 49.8708 43.9609 49.7544 44.0651C49.895 44.0094 50.0259 43.9561 50.1374 43.9076C50.2004 43.8325 50.261 43.7525 50.324 43.6822C50.2658 43.7016 50.2028 43.7258 50.1228 43.7573C50.1204 43.7573 50.118 43.7573 50.1131 43.7598ZM48.8553 46.1227C48.9038 45.9676 48.9692 45.8246 49.0298 45.6768C48.7487 45.7058 48.5887 45.7325 48.3221 45.907C48.3003 45.9555 48.2688 45.9942 48.247 46.0427C48.1913 46.1736 48.1598 46.319 48.1258 46.462C48.4288 46.2172 48.5136 46.159 48.7705 46.1324C48.7996 46.13 48.8262 46.1251 48.8553 46.1227Z" fill="url(#paint21_radial_791_6835)"/>
</g>
<defs>
<radialGradient id="paint0_radial_791_6835" cx="0" cy="0" r="1" gradientUnits="userSpaceOnUse" gradientTransform="translate(36.3487 28.1849) scale(53.9609)">
<stop offset="0.13" stop-color="#FF8C38"/>
<stop offset="0.18" stop-color="#FB812E"/>
<stop offset="0.44" stop-color="#EB5000"/>
<stop offset="0.65" stop-color="#B81C00"/>
<stop offset="0.87" stop-color="#E33D00"/>
</radialGradient>
<radialGradient id="paint1_radial_791_6835" cx="0" cy="0" r="1" gradientUnits="userSpaceOnUse" gradientTransform="translate(37.2478 26.6578) scale(51.44 51.4401)">
<stop offset="0.2" stop-color="#8A8D87"/>
<stop offset="0.27" stop-color="#6D6966"/>
<stop offset="0.36" stop-color="#453838"/>
<stop offset="0.65"/>
<stop offset="0.72" stop-color="#110E0E"/>
<stop offset="0.89" stop-color="#362C2C"/>
<stop offset="0.98" stop-color="#453838"/>
</radialGradient>
<radialGradient id="paint2_radial_791_6835" cx="0" cy="0" r="1" gradientUnits="userSpaceOnUse" gradientTransform="translate(19.6651 41.287) rotate(180) scale(40.0825 40.3975)">
<stop offset="0.16" stop-color="#B36343"/>
<stop offset="0.23" stop-color="#A55739"/>
<stop offset="0.44" stop-color="#81391E"/>
<stop offset="0.61" stop-color="#6B270E"/>
<stop offset="0.72" stop-color="#642109"/>
<stop offset="0.92" stop-color="#7A2E01"/>
</radialGradient>
<radialGradient id="paint3_radial_791_6835" cx="0" cy="0" r="1" gradientUnits="userSpaceOnUse" gradientTransform="translate(24.2819 47.8371) rotate(180) scale(35.8886 36.1707)">
<stop offset="0.22" stop-color="#B36343"/>
<stop offset="0.28" stop-color="#A55739"/>
<stop offset="0.47" stop-color="#81391E"/>
<stop offset="0.62" stop-color="#6B270E"/>
<stop offset="0.72" stop-color="#642109"/>
<stop offset="0.92" stop-color="#7A2E01"/>
</radialGradient>
<radialGradient id="paint4_radial_791_6835" cx="0" cy="0" r="1" gradientUnits="userSpaceOnUse" gradientTransform="translate(26.2706 49.4381) rotate(180) scale(40.9284 41.2501)">
<stop offset="0.13" stop-color="#9D4D2E"/>
<stop offset="0.2" stop-color="#8E4325"/>
<stop offset="0.4" stop-color="#6A2D11"/>
<stop offset="0.56" stop-color="#541F04"/>
<stop offset="0.67" stop-color="#4D1A00"/>
<stop offset="1" stop-color="#702E06"/>
</radialGradient>
<radialGradient id="paint5_radial_791_6835" cx="0" cy="0" r="1" gradientUnits="userSpaceOnUse" gradientTransform="translate(26.2384 46.0344) rotate(180) scale(40.6572 40.9767)">
<stop offset="0.13" stop-color="#E39E8C"/>
<stop offset="0.15" stop-color="#DE9986"/>
<stop offset="0.34" stop-color="#AE6D55"/>
<stop offset="0.5" stop-color="#8B4D31"/>
<stop offset="0.63" stop-color="#753A1B"/>
<stop offset="0.72" stop-color="#6E3314"/>
<stop offset="1" stop-color="#702E06"/>
</radialGradient>
<radialGradient id="paint6_radial_791_6835" cx="0" cy="0" r="1" gradientUnits="userSpaceOnUse" gradientTransform="translate(22.4031 43.991) rotate(180) scale(45.1578 45.5127)">
<stop stop-color="white"/>
<stop offset="0.43" stop-color="#D6D6E0"/>
<stop offset="0.5" stop-color="#C7C7D1"/>
<stop offset="0.62" stop-color="#A3A3AB"/>
<stop offset="0.65" stop-color="#9A9AA2"/>
<stop offset="0.89" stop-color="#D1D1D1"/>
</radialGradient>
<linearGradient id="paint7_linear_791_6835" x1="22.8163" y1="37.9549" x2="26.3318" y2="44.1757" gradientUnits="userSpaceOnUse">
<stop stop-color="white"/>
<stop offset="0.92" stop-color="#C3B8BA"/>
</linearGradient>
<linearGradient id="paint8_linear_791_6835" x1="33.0442" y1="33.9819" x2="30.8258" y2="36.5321" gradientUnits="userSpaceOnUse">
<stop stop-color="#8F462A"/>
<stop offset="1" stop-color="#83624D"/>
</linearGradient>
<linearGradient id="paint9_linear_791_6835" x1="27.4329" y1="37.4376" x2="25.3267" y2="40.1647" gradientUnits="userSpaceOnUse">
<stop stop-color="#8F462A"/>
<stop offset="1" stop-color="#83624D"/>
</linearGradient>
<linearGradient id="paint10_linear_791_6835" x1="22.6127" y1="41.3162" x2="20.624" y2="43.8685" gradientUnits="userSpaceOnUse">
<stop stop-color="#8F462A"/>
<stop offset="1" stop-color="#83624D"/>
</linearGradient>
<linearGradient id="paint11_linear_791_6835" x1="18.2123" y1="45.6244" x2="16.2812" y2="48.2946" gradientUnits="userSpaceOnUse">
<stop stop-color="#8F462A"/>
<stop offset="1" stop-color="#83624D"/>
</linearGradient>
<linearGradient id="paint12_linear_791_6835" x1="33.2188" y1="33.2237" x2="31.0004" y2="35.7706" gradientUnits="userSpaceOnUse">
<stop stop-color="white"/>
<stop offset="0.92" stop-color="#C3B8BA"/>
</linearGradient>
<linearGradient id="paint13_linear_791_6835" x1="27.6072" y1="36.6761" x2="25.501" y2="39.4065" gradientUnits="userSpaceOnUse">
<stop stop-color="white"/>
<stop offset="0.92" stop-color="#C3B8BA"/>
</linearGradient>
<linearGradient id="paint14_linear_791_6835" x1="22.7841" y1="40.5581" x2="20.7954" y2="43.1104" gradientUnits="userSpaceOnUse">
<stop stop-color="white"/>
<stop offset="0.92" stop-color="#C3B8BA"/>
</linearGradient>
<linearGradient id="paint15_linear_791_6835" x1="18.3864" y1="44.863" x2="16.4553" y2="47.5332" gradientUnits="userSpaceOnUse">
<stop stop-color="white"/>
<stop offset="0.92" stop-color="#C3B8BA"/>
</linearGradient>
<linearGradient id="paint16_linear_791_6835" x1="7.64854" y1="59.3495" x2="9.80397" y2="61.6723" gradientUnits="userSpaceOnUse">
<stop stop-color="white"/>
<stop offset="0.3" stop-color="#EBEBEF"/>
<stop offset="0.72" stop-color="#D5D5DE"/>
<stop offset="1" stop-color="#CECED8"/>
</linearGradient>
<linearGradient id="paint17_linear_791_6835" x1="44.1474" y1="30.0674" x2="44.4326" y2="31.5374" gradientUnits="userSpaceOnUse">
<stop stop-color="white"/>
<stop offset="0.3" stop-color="#EBEBEF"/>
<stop offset="0.72" stop-color="#D5D5DE"/>
<stop offset="1" stop-color="#CECED8"/>
</linearGradient>
<radialGradient id="paint18_radial_791_6835" cx="0" cy="0" r="1" gradientUnits="userSpaceOnUse" gradientTransform="translate(60.0978 54.8788) scale(30.4005)">
<stop stop-color="white"/>
<stop offset="0.43" stop-color="#D6D6E0"/>
<stop offset="0.5" stop-color="#C7C7D1"/>
<stop offset="0.62" stop-color="#A3A3AB"/>
<stop offset="0.65" stop-color="#9A9AA2"/>
<stop offset="0.89" stop-color="#D1D1D1"/>
</radialGradient>
<radialGradient id="paint19_radial_791_6835" cx="0" cy="0" r="1" gradientUnits="userSpaceOnUse" gradientTransform="translate(59.9233 54.6874) scale(29.5014 29.5014)">
<stop stop-color="#CDCDCD"/>
<stop offset="0.43" stop-color="#A4A4AE"/>
<stop offset="0.5" stop-color="#95959F"/>
<stop offset="0.62" stop-color="#717179"/>
<stop offset="0.65" stop-color="#686870"/>
<stop offset="0.89" stop-color="#9F9F9F"/>
</radialGradient>
<radialGradient id="paint20_radial_791_6835" cx="0" cy="0" r="1" gradientUnits="userSpaceOnUse" gradientTransform="translate(58.9323 54.4547) scale(29.6347 29.6347)">
<stop offset="0.09" stop-color="#FF915E"/>
<stop offset="0.11" stop-color="#FD8D5C"/>
<stop offset="0.35" stop-color="#E05B45"/>
<stop offset="0.46" stop-color="#D6483D"/>
<stop offset="0.65" stop-color="#B0333D"/>
<stop offset="0.88" stop-color="#DB663D"/>
</radialGradient>
<radialGradient id="paint21_radial_791_6835" cx="0" cy="0" r="1" gradientUnits="userSpaceOnUse" gradientTransform="translate(59.4364 55.2908) scale(28.6047 28.6047)">
<stop offset="0.09" stop-color="#F5722E"/>
<stop offset="0.11" stop-color="#F36E2C"/>
<stop offset="0.35" stop-color="#D63C15"/>
<stop offset="0.46" stop-color="#CC290D"/>
<stop offset="0.65" stop-color="#A6140D"/>
<stop offset="0.88" stop-color="#D1470D"/>
</radialGradient>
<clipPath id="clip0_791_6835">
<rect width="71" height="71" fill="white" transform="translate(6)"/>
</clipPath>
<clipPath id="clip1_791_6835">
<rect width="53" height="53" fill="white" transform="matrix(-1 0 0 1 53 26)"/>
</clipPath>
<clipPath id="clip2_791_6835">
<rect width="40" height="40" fill="white" transform="translate(43 39)"/>
</clipPath>
</defs>
</svg>
